solid OpenSCAD_Model
  facet normal 0.0654055 0.997859 -0
    outer loop
      vertex 23.2611 12.4829 0
      vertex 23 12.5 2
      vertex 23.2611 12.4829 2
    endloop
  endfacet
  facet normal 0.0654055 0.997859 0
    outer loop
      vertex 23 12.5 2
      vertex 23.2611 12.4829 0
      vertex 23 12.5 0
    endloop
  endfacet
  facet normal 0 1 -0
    outer loop
      vertex 23 12.5 0
      vertex -23 12.5 2
      vertex 23 12.5 2
    endloop
  endfacet
  facet normal 0 1 0
    outer loop
      vertex -23 12.5 2
      vertex 23 12.5 0
      vertex -23 12.5 0
    endloop
  endfacet
  facet normal 0 0 1
    outer loop
      vertex 23 12.5 2
      vertex 25 10.5 2
      vertex 24.9829 10.7611 2
    endloop
  endfacet
  facet normal 0 0 1
    outer loop
      vertex 25 10.5 2
      vertex 15.5 0 2
      vertex 25 -10.5 2
    endloop
  endfacet
  facet normal 0 0 1
    outer loop
      vertex 23 12.5 2
      vertex 24.9829 10.7611 2
      vertex 24.9319 11.0176 2
    endloop
  endfacet
  facet normal -0 0 1
    outer loop
      vertex 15.4743 -0.391579 2
      vertex 25 -10.5 2
      vertex 15.5 0 2
    endloop
  endfacet
  facet normal 0 0 1
    outer loop
      vertex 23 12.5 2
      vertex 24.9319 11.0176 2
      vertex 24.8478 11.2654 2
    endloop
  endfacet
  facet normal -0 0 1
    outer loop
      vertex 15.3978 -0.776458 2
      vertex 25 -10.5 2
      vertex 15.4743 -0.391579 2
    endloop
  endfacet
  facet normal 0 0 1
    outer loop
      vertex 23 12.5 2
      vertex 24.8478 11.2654 2
      vertex 24.732 11.5 2
    endloop
  endfacet
  facet normal -0 0 1
    outer loop
      vertex 15.2716 -1.14805 2
      vertex 25 -10.5 2
      vertex 15.3978 -0.776458 2
    endloop
  endfacet
  facet normal 0 0 1
    outer loop
      vertex 23 12.5 2
      vertex 24.732 11.5 2
      vertex 24.5867 11.7175 2
    endloop
  endfacet
  facet normal -0 0 1
    outer loop
      vertex 15.0981 -1.5 2
      vertex 25 -10.5 2
      vertex 15.2716 -1.14805 2
    endloop
  endfacet
  facet normal 0 0 1
    outer loop
      vertex 23 12.5 2
      vertex 24.5867 11.7175 2
      vertex 24.4142 11.9142 2
    endloop
  endfacet
  facet normal -0 0 1
    outer loop
      vertex 14.8801 -1.82628 2
      vertex 25 -10.5 2
      vertex 15.0981 -1.5 2
    endloop
  endfacet
  facet normal 0 0 1
    outer loop
      vertex 23 12.5 2
      vertex 24.4142 11.9142 2
      vertex 24.2175 12.0867 2
    endloop
  endfacet
  facet normal -0 0 1
    outer loop
      vertex 14.6213 -2.12132 2
      vertex 25 -10.5 2
      vertex 14.8801 -1.82628 2
    endloop
  endfacet
  facet normal 0 0 1
    outer loop
      vertex 23 12.5 2
      vertex 24.2175 12.0867 2
      vertex 24 12.232 2
    endloop
  endfacet
  facet normal 0 -0 1
    outer loop
      vertex 23 -12.5 2
      vertex 25 -10.5 2
      vertex 14.6213 -2.12132 2
    endloop
  endfacet
  facet normal 0 0 1
    outer loop
      vertex 23 12.5 2
      vertex 24 12.232 2
      vertex 23.7654 12.3478 2
    endloop
  endfacet
  facet normal 0 0 1
    outer loop
      vertex 24.9829 -10.7611 2
      vertex 23 -12.5 2
      vertex 24.9319 -11.0176 2
    endloop
  endfacet
  facet normal 0 0 1
    outer loop
      vertex 23 12.5 2
      vertex 23.7654 12.3478 2
      vertex 23.5176 12.4319 2
    endloop
  endfacet
  facet normal 0 0 1
    outer loop
      vertex 24.9319 -11.0176 2
      vertex 23 -12.5 2
      vertex 24.8478 -11.2654 2
    endloop
  endfacet
  facet normal 0 0 1
    outer loop
      vertex 23 12.5 2
      vertex 23.5176 12.4319 2
      vertex 23.2611 12.4829 2
    endloop
  endfacet
  facet normal 0 0 1
    outer loop
      vertex 24.8478 -11.2654 2
      vertex 23 -12.5 2
      vertex 24.732 -11.5 2
    endloop
  endfacet
  facet normal 0 0 1
    outer loop
      vertex 25 10.5 2
      vertex 23 12.5 2
      vertex 14.6213 2.12132 2
    endloop
  endfacet
  facet normal 0 0 1
    outer loop
      vertex 24.5867 -11.7175 2
      vertex 23 -12.5 2
      vertex 24.4142 -11.9142 2
    endloop
  endfacet
  facet normal 0 0 1
    outer loop
      vertex 24.4142 -11.9142 2
      vertex 23 -12.5 2
      vertex 24.2175 -12.0867 2
    endloop
  endfacet
  facet normal 0 0 1
    outer loop
      vertex 25 10.5 2
      vertex 15.4743 0.391578 2
      vertex 15.5 0 2
    endloop
  endfacet
  facet normal 0 0 1
    outer loop
      vertex 25 10.5 2
      vertex 15.3978 0.776457 2
      vertex 15.4743 0.391578 2
    endloop
  endfacet
  facet normal 0 0 1
    outer loop
      vertex 25 10.5 2
      vertex 15.2716 1.14805 2
      vertex 15.3978 0.776457 2
    endloop
  endfacet
  facet normal 0 0 1
    outer loop
      vertex 25 10.5 2
      vertex 15.0981 1.5 2
      vertex 15.2716 1.14805 2
    endloop
  endfacet
  facet normal 0 0 1
    outer loop
      vertex 25 10.5 2
      vertex 14.8801 1.82628 2
      vertex 15.0981 1.5 2
    endloop
  endfacet
  facet normal 0 0 1
    outer loop
      vertex 25 10.5 2
      vertex 14.6213 2.12132 2
      vertex 14.8801 1.82628 2
    endloop
  endfacet
  facet normal 0 0 1
    outer loop
      vertex 23 12.5 2
      vertex 14.3263 2.38006 2
      vertex 14.6213 2.12132 2
    endloop
  endfacet
  facet normal 0 0 1
    outer loop
      vertex 23 12.5 2
      vertex 14 2.59808 2
      vertex 14.3263 2.38006 2
    endloop
  endfacet
  facet normal 0 0 1
    outer loop
      vertex 23 12.5 2
      vertex 13.648 2.77164 2
      vertex 14 2.59808 2
    endloop
  endfacet
  facet normal 0 0 1
    outer loop
      vertex 23 12.5 2
      vertex 13.2765 2.89778 2
      vertex 13.648 2.77164 2
    endloop
  endfacet
  facet normal 0 0 1
    outer loop
      vertex 23 12.5 2
      vertex 12.8916 2.97433 2
      vertex 13.2765 2.89778 2
    endloop
  endfacet
  facet normal 0 0 1
    outer loop
      vertex 23 12.5 2
      vertex 12.5 3 2
      vertex 12.8916 2.97433 2
    endloop
  endfacet
  facet normal 0 0 1
    outer loop
      vertex 23 12.5 2
      vertex 12.1084 2.97433 2
      vertex 12.5 3 2
    endloop
  endfacet
  facet normal 0 0 1
    outer loop
      vertex 23 12.5 2
      vertex 11.7235 2.89778 2
      vertex 12.1084 2.97433 2
    endloop
  endfacet
  facet normal 0 0 1
    outer loop
      vertex 23 12.5 2
      vertex 11.3519 2.77164 2
      vertex 11.7235 2.89778 2
    endloop
  endfacet
  facet normal 0 0 1
    outer loop
      vertex -11.352 2.77164 2
      vertex 11.3519 2.77164 2
      vertex 23 12.5 2
    endloop
  endfacet
  facet normal 0 0 1
    outer loop
      vertex 11.3519 2.77164 2
      vertex -11.352 2.77164 2
      vertex 11 2.59808 2
    endloop
  endfacet
  facet normal 0 0 1
    outer loop
      vertex 9.52567 0.391578 2
      vertex -9.5 0 2
      vertex 9.5 0 2
    endloop
  endfacet
  facet normal 0 0 1
    outer loop
      vertex -9.52567 0.391578 2
      vertex 9.52567 0.391578 2
      vertex 9.60222 0.776457 2
    endloop
  endfacet
  facet normal 0 0 1
    outer loop
      vertex -9.60222 0.776457 2
      vertex 9.60222 0.776457 2
      vertex 9.72836 1.14805 2
    endloop
  endfacet
  facet normal 0 0 1
    outer loop
      vertex -9.72836 1.14805 2
      vertex 9.72836 1.14805 2
      vertex 9.90192 1.5 2
    endloop
  endfacet
  facet normal 0 0 1
    outer loop
      vertex -9.90192 1.5 2
      vertex 9.90192 1.5 2
      vertex 10.1199 1.82628 2
    endloop
  endfacet
  facet normal 0 0 1
    outer loop
      vertex -10.1199 1.82628 2
      vertex 10.1199 1.82628 2
      vertex 10.3787 2.12132 2
    endloop
  endfacet
  facet normal 0 0 1
    outer loop
      vertex -10.3787 2.12132 2
      vertex 10.3787 2.12132 2
      vertex 10.6737 2.38006 2
    endloop
  endfacet
  facet normal 0 -0 1
    outer loop
      vertex -11 2.59808 2
      vertex 11 2.59808 2
      vertex -11.352 2.77164 2
    endloop
  endfacet
  facet normal 0 0 1
    outer loop
      vertex 9.52567 0.391578 2
      vertex -9.52567 0.391578 2
      vertex -9.5 0 2
    endloop
  endfacet
  facet normal 0 0 1
    outer loop
      vertex 9.60222 0.776457 2
      vertex -9.60222 0.776457 2
      vertex -9.52567 0.391578 2
    endloop
  endfacet
  facet normal 0 0 1
    outer loop
      vertex 9.72836 1.14805 2
      vertex -9.72836 1.14805 2
      vertex -9.60222 0.776457 2
    endloop
  endfacet
  facet normal 0 0 1
    outer loop
      vertex 9.90192 1.5 2
      vertex -9.90192 1.5 2
      vertex -9.72836 1.14805 2
    endloop
  endfacet
  facet normal 0 0 1
    outer loop
      vertex 10.1199 1.82628 2
      vertex -10.1199 1.82628 2
      vertex -9.90192 1.5 2
    endloop
  endfacet
  facet normal 0 0 1
    outer loop
      vertex 10.3787 2.12132 2
      vertex -10.3787 2.12132 2
      vertex -10.1199 1.82628 2
    endloop
  endfacet
  facet normal 0 0 1
    outer loop
      vertex 10.6737 2.38006 2
      vertex -10.6737 2.38006 2
      vertex -10.3787 2.12132 2
    endloop
  endfacet
  facet normal 0 0 1
    outer loop
      vertex 10.6737 2.38006 2
      vertex -11 2.59808 2
      vertex -10.6737 2.38006 2
    endloop
  endfacet
  facet normal 0 0 1
    outer loop
      vertex 11 2.59808 2
      vertex -11 2.59808 2
      vertex 10.6737 2.38006 2
    endloop
  endfacet
  facet normal -0 0 1
    outer loop
      vertex -23 12.5 2
      vertex -11.352 2.77164 2
      vertex 23 12.5 2
    endloop
  endfacet
  facet normal 0 0 1
    outer loop
      vertex -11.352 2.77164 2
      vertex -23 12.5 2
      vertex -11.7235 2.89778 2
    endloop
  endfacet
  facet normal 0 0 1
    outer loop
      vertex -11.7235 2.89778 2
      vertex -23 12.5 2
      vertex -12.1084 2.97433 2
    endloop
  endfacet
  facet normal 0 0 1
    outer loop
      vertex -12.1084 2.97433 2
      vertex -23 12.5 2
      vertex -12.5 3 2
    endloop
  endfacet
  facet normal 0 0 1
    outer loop
      vertex -12.5 3 2
      vertex -23 12.5 2
      vertex -12.8916 2.97433 2
    endloop
  endfacet
  facet normal 0 0 1
    outer loop
      vertex -15.3978 0.776457 2
      vertex -25 10.5 2
      vertex -15.4743 0.391578 2
    endloop
  endfacet
  facet normal 0 0 1
    outer loop
      vertex -15.2716 1.14805 2
      vertex -25 10.5 2
      vertex -15.3978 0.776457 2
    endloop
  endfacet
  facet normal 0 0 1
    outer loop
      vertex -15.0981 1.5 2
      vertex -25 10.5 2
      vertex -15.2716 1.14805 2
    endloop
  endfacet
  facet normal 0 0 1
    outer loop
      vertex -14.8801 1.82628 2
      vertex -25 10.5 2
      vertex -15.0981 1.5 2
    endloop
  endfacet
  facet normal 0 0 1
    outer loop
      vertex -14.6213 2.12132 2
      vertex -25 10.5 2
      vertex -14.8801 1.82628 2
    endloop
  endfacet
  facet normal -0 0 1
    outer loop
      vertex -25 10.5 2
      vertex -14.6213 2.12132 2
      vertex -23 12.5 2
    endloop
  endfacet
  facet normal 0 0 1
    outer loop
      vertex -14.3263 2.38006 2
      vertex -23 12.5 2
      vertex -14.6213 2.12132 2
    endloop
  endfacet
  facet normal 0 0 1
    outer loop
      vertex -14 2.59808 2
      vertex -23 12.5 2
      vertex -14.3263 2.38006 2
    endloop
  endfacet
  facet normal 0 0 1
    outer loop
      vertex -13.6481 2.77164 2
      vertex -23 12.5 2
      vertex -14 2.59808 2
    endloop
  endfacet
  facet normal 0 0 1
    outer loop
      vertex -13.2765 2.89778 2
      vertex -23 12.5 2
      vertex -13.6481 2.77164 2
    endloop
  endfacet
  facet normal 0 0 1
    outer loop
      vertex -12.8916 2.97433 2
      vertex -23 12.5 2
      vertex -13.2765 2.89778 2
    endloop
  endfacet
  facet normal 0 0 1
    outer loop
      vertex 24.2175 -12.0867 2
      vertex 23 -12.5 2
      vertex 24 -12.232 2
    endloop
  endfacet
  facet normal 0 0 1
    outer loop
      vertex 23.7654 -12.3478 2
      vertex 23 -12.5 2
      vertex 23.5176 -12.4319 2
    endloop
  endfacet
  facet normal 0 0 1
    outer loop
      vertex 23.5176 -12.4319 2
      vertex 23 -12.5 2
      vertex 23.2611 -12.4829 2
    endloop
  endfacet
  facet normal 0 0 1
    outer loop
      vertex 24 -12.232 2
      vertex 23 -12.5 2
      vertex 23.7654 -12.3478 2
    endloop
  endfacet
  facet normal 0 0 1
    outer loop
      vertex 24.732 -11.5 2
      vertex 23 -12.5 2
      vertex 24.5867 -11.7175 2
    endloop
  endfacet
  facet normal 0 0 1
    outer loop
      vertex 25 -10.5 2
      vertex 23 -12.5 2
      vertex 24.9829 -10.7611 2
    endloop
  endfacet
  facet normal -0 0 1
    outer loop
      vertex 14.3263 -2.38006 2
      vertex 23 -12.5 2
      vertex 14.6213 -2.12132 2
    endloop
  endfacet
  facet normal -0 0 1
    outer loop
      vertex 14 -2.59808 2
      vertex 23 -12.5 2
      vertex 14.3263 -2.38006 2
    endloop
  endfacet
  facet normal -0 0 1
    outer loop
      vertex 13.648 -2.77164 2
      vertex 23 -12.5 2
      vertex 14 -2.59808 2
    endloop
  endfacet
  facet normal -0 0 1
    outer loop
      vertex 13.2765 -2.89778 2
      vertex 23 -12.5 2
      vertex 13.648 -2.77164 2
    endloop
  endfacet
  facet normal -0 0 1
    outer loop
      vertex 12.8916 -2.97433 2
      vertex 23 -12.5 2
      vertex 13.2765 -2.89778 2
    endloop
  endfacet
  facet normal -0 0 1
    outer loop
      vertex 12.5 -3 2
      vertex 23 -12.5 2
      vertex 12.8916 -2.97433 2
    endloop
  endfacet
  facet normal 0 0 1
    outer loop
      vertex 12.1084 -2.97433 2
      vertex 23 -12.5 2
      vertex 12.5 -3 2
    endloop
  endfacet
  facet normal 0 0 1
    outer loop
      vertex 11.7235 -2.89778 2
      vertex 23 -12.5 2
      vertex 12.1084 -2.97433 2
    endloop
  endfacet
  facet normal 0 0 1
    outer loop
      vertex 11.3519 -2.77164 2
      vertex 23 -12.5 2
      vertex 11.7235 -2.89778 2
    endloop
  endfacet
  facet normal 0 0 1
    outer loop
      vertex -11.352 -2.77164 2
      vertex 11.3519 -2.77164 2
      vertex 11 -2.59808 2
    endloop
  endfacet
  facet normal 0 0 1
    outer loop
      vertex -11 -2.59808 2
      vertex 11 -2.59808 2
      vertex 10.6737 -2.38006 2
    endloop
  endfacet
  facet normal -0 0 1
    outer loop
      vertex -9.5 0 2
      vertex 9.52567 -0.391579 2
      vertex 9.5 0 2
    endloop
  endfacet
  facet normal 0 0 1
    outer loop
      vertex -9.52567 -0.391579 2
      vertex 9.52567 -0.391579 2
      vertex -9.5 0 2
    endloop
  endfacet
  facet normal 0 0 1
    outer loop
      vertex 9.52567 -0.391579 2
      vertex -9.52567 -0.391579 2
      vertex 9.60222 -0.776458 2
    endloop
  endfacet
  facet normal 0 0 1
    outer loop
      vertex -9.60222 -0.776458 2
      vertex 9.60222 -0.776458 2
      vertex -9.52567 -0.391579 2
    endloop
  endfacet
  facet normal 0 0 1
    outer loop
      vertex 9.60222 -0.776458 2
      vertex -9.60222 -0.776458 2
      vertex 9.72836 -1.14805 2
    endloop
  endfacet
  facet normal 0 0 1
    outer loop
      vertex -9.72836 -1.14805 2
      vertex 9.72836 -1.14805 2
      vertex -9.60222 -0.776458 2
    endloop
  endfacet
  facet normal 0 0 1
    outer loop
      vertex 9.72836 -1.14805 2
      vertex -9.72836 -1.14805 2
      vertex 9.90192 -1.5 2
    endloop
  endfacet
  facet normal 0 0 1
    outer loop
      vertex -9.90192 -1.5 2
      vertex 9.90192 -1.5 2
      vertex -9.72836 -1.14805 2
    endloop
  endfacet
  facet normal 0 0 1
    outer loop
      vertex 9.90192 -1.5 2
      vertex -9.90192 -1.5 2
      vertex 10.1199 -1.82628 2
    endloop
  endfacet
  facet normal 0 0 1
    outer loop
      vertex -10.1199 -1.82628 2
      vertex 10.1199 -1.82628 2
      vertex -9.90192 -1.5 2
    endloop
  endfacet
  facet normal 0 0 1
    outer loop
      vertex 10.1199 -1.82628 2
      vertex -10.1199 -1.82628 2
      vertex 10.3787 -2.12132 2
    endloop
  endfacet
  facet normal 0 0 1
    outer loop
      vertex -10.3787 -2.12132 2
      vertex 10.3787 -2.12132 2
      vertex -10.1199 -1.82628 2
    endloop
  endfacet
  facet normal 0 0 1
    outer loop
      vertex 10.3787 -2.12132 2
      vertex -10.3787 -2.12132 2
      vertex 10.6737 -2.38006 2
    endloop
  endfacet
  facet normal 0 0 1
    outer loop
      vertex -10.6737 -2.38006 2
      vertex 10.6737 -2.38006 2
      vertex -10.3787 -2.12132 2
    endloop
  endfacet
  facet normal 0 0 1
    outer loop
      vertex -11 -2.59808 2
      vertex 10.6737 -2.38006 2
      vertex -10.6737 -2.38006 2
    endloop
  endfacet
  facet normal 0 0 1
    outer loop
      vertex 11 -2.59808 2
      vertex -11 -2.59808 2
      vertex -11.352 -2.77164 2
    endloop
  endfacet
  facet normal 0 0 1
    outer loop
      vertex 11.3519 -2.77164 2
      vertex -11.352 -2.77164 2
      vertex 23 -12.5 2
    endloop
  endfacet
  facet normal 0 0 1
    outer loop
      vertex -23 -12.5 2
      vertex -11.352 -2.77164 2
      vertex -11.7235 -2.89778 2
    endloop
  endfacet
  facet normal 0 0 1
    outer loop
      vertex -23 -12.5 2
      vertex -11.7235 -2.89778 2
      vertex -12.1084 -2.97433 2
    endloop
  endfacet
  facet normal 0 0 1
    outer loop
      vertex -23 -12.5 2
      vertex -12.1084 -2.97433 2
      vertex -12.5 -3 2
    endloop
  endfacet
  facet normal 0 0 1
    outer loop
      vertex -23 -12.5 2
      vertex -12.5 -3 2
      vertex -12.8916 -2.97433 2
    endloop
  endfacet
  facet normal 0 0 1
    outer loop
      vertex -23 -12.5 2
      vertex -12.8916 -2.97433 2
      vertex -13.2765 -2.89778 2
    endloop
  endfacet
  facet normal 0 0 1
    outer loop
      vertex -15.4743 0.391578 2
      vertex -25 10.5 2
      vertex -15.5 0 2
    endloop
  endfacet
  facet normal 0 0 1
    outer loop
      vertex -25 -10.5 2
      vertex -15.5 0 2
      vertex -25 10.5 2
    endloop
  endfacet
  facet normal 0 0 1
    outer loop
      vertex -15.5 0 2
      vertex -25 -10.5 2
      vertex -15.4743 -0.391579 2
    endloop
  endfacet
  facet normal 0 0 1
    outer loop
      vertex -15.4743 -0.391579 2
      vertex -25 -10.5 2
      vertex -15.3978 -0.776458 2
    endloop
  endfacet
  facet normal 0 0 1
    outer loop
      vertex -11.352 -2.77164 2
      vertex -23 -12.5 2
      vertex 23 -12.5 2
    endloop
  endfacet
  facet normal 0 0 1
    outer loop
      vertex -13.6481 -2.77164 2
      vertex -23 -12.5 2
      vertex -13.2765 -2.89778 2
    endloop
  endfacet
  facet normal 0 0 1
    outer loop
      vertex -14 -2.59808 2
      vertex -23 -12.5 2
      vertex -13.6481 -2.77164 2
    endloop
  endfacet
  facet normal 0 0 1
    outer loop
      vertex -14.3263 -2.38006 2
      vertex -23 -12.5 2
      vertex -14 -2.59808 2
    endloop
  endfacet
  facet normal 0 0 1
    outer loop
      vertex -14.6213 -2.12132 2
      vertex -23 -12.5 2
      vertex -14.3263 -2.38006 2
    endloop
  endfacet
  facet normal 0 0 1
    outer loop
      vertex -25 -10.5 2
      vertex -14.6213 -2.12132 2
      vertex -14.8801 -1.82628 2
    endloop
  endfacet
  facet normal 0 0 1
    outer loop
      vertex -25 -10.5 2
      vertex -14.8801 -1.82628 2
      vertex -15.0981 -1.5 2
    endloop
  endfacet
  facet normal 0 0 1
    outer loop
      vertex -15.3978 -0.776458 2
      vertex -25 -10.5 2
      vertex -15.2716 -1.14805 2
    endloop
  endfacet
  facet normal 0 0 1
    outer loop
      vertex -25 10.5 2
      vertex -23 12.5 2
      vertex -23.2611 12.4829 2
    endloop
  endfacet
  facet normal 0 0 1
    outer loop
      vertex -15.2716 -1.14805 2
      vertex -25 -10.5 2
      vertex -15.0981 -1.5 2
    endloop
  endfacet
  facet normal 0 0 1
    outer loop
      vertex -25 10.5 2
      vertex -23.2611 12.4829 2
      vertex -23.5176 12.4319 2
    endloop
  endfacet
  facet normal 0 0 1
    outer loop
      vertex -14.6213 -2.12132 2
      vertex -25 -10.5 2
      vertex -23 -12.5 2
    endloop
  endfacet
  facet normal 0 0 1
    outer loop
      vertex -25 10.5 2
      vertex -23.5176 12.4319 2
      vertex -23.7654 12.3478 2
    endloop
  endfacet
  facet normal 0 0 1
    outer loop
      vertex -23 -12.5 2
      vertex -25 -10.5 2
      vertex -23.2611 -12.4829 2
    endloop
  endfacet
  facet normal 0 0 1
    outer loop
      vertex -25 10.5 2
      vertex -23.7654 12.3478 2
      vertex -24 12.232 2
    endloop
  endfacet
  facet normal 0 0 1
    outer loop
      vertex -23.2611 -12.4829 2
      vertex -25 -10.5 2
      vertex -23.5176 -12.4319 2
    endloop
  endfacet
  facet normal 0 0 1
    outer loop
      vertex -25 10.5 2
      vertex -24 12.232 2
      vertex -24.2175 12.0867 2
    endloop
  endfacet
  facet normal 0 0 1
    outer loop
      vertex -23.5176 -12.4319 2
      vertex -25 -10.5 2
      vertex -23.7654 -12.3478 2
    endloop
  endfacet
  facet normal 0 0 1
    outer loop
      vertex -25 10.5 2
      vertex -24.2175 12.0867 2
      vertex -24.4142 11.9142 2
    endloop
  endfacet
  facet normal 0 0 1
    outer loop
      vertex -23.7654 -12.3478 2
      vertex -25 -10.5 2
      vertex -24 -12.232 2
    endloop
  endfacet
  facet normal 0 0 1
    outer loop
      vertex -25 10.5 2
      vertex -24.4142 11.9142 2
      vertex -24.5867 11.7175 2
    endloop
  endfacet
  facet normal 0 0 1
    outer loop
      vertex -24 -12.232 2
      vertex -25 -10.5 2
      vertex -24.2175 -12.0867 2
    endloop
  endfacet
  facet normal 0 0 1
    outer loop
      vertex -25 10.5 2
      vertex -24.5867 11.7175 2
      vertex -24.732 11.5 2
    endloop
  endfacet
  facet normal 0 0 1
    outer loop
      vertex -24.2175 -12.0867 2
      vertex -25 -10.5 2
      vertex -24.4142 -11.9142 2
    endloop
  endfacet
  facet normal 0 0 1
    outer loop
      vertex -25 10.5 2
      vertex -24.732 11.5 2
      vertex -24.8478 11.2654 2
    endloop
  endfacet
  facet normal 0 0 1
    outer loop
      vertex -24.4142 -11.9142 2
      vertex -25 -10.5 2
      vertex -24.5867 -11.7175 2
    endloop
  endfacet
  facet normal 0 0 1
    outer loop
      vertex -25 10.5 2
      vertex -24.8478 11.2654 2
      vertex -24.9319 11.0176 2
    endloop
  endfacet
  facet normal 0 0 1
    outer loop
      vertex -24.5867 -11.7175 2
      vertex -25 -10.5 2
      vertex -24.732 -11.5 2
    endloop
  endfacet
  facet normal 0 0 1
    outer loop
      vertex -25 10.5 2
      vertex -24.9319 11.0176 2
      vertex -24.9829 10.7611 2
    endloop
  endfacet
  facet normal 0 0 1
    outer loop
      vertex -24.732 -11.5 2
      vertex -25 -10.5 2
      vertex -24.8478 -11.2654 2
    endloop
  endfacet
  facet normal 0 0 1
    outer loop
      vertex -24.8478 -11.2654 2
      vertex -25 -10.5 2
      vertex -24.9319 -11.0176 2
    endloop
  endfacet
  facet normal 0 0 1
    outer loop
      vertex -24.9319 -11.0176 2
      vertex -25 -10.5 2
      vertex -24.9829 -10.7611 2
    endloop
  endfacet
  facet normal -0.442287 -0.896874 0
    outer loop
      vertex -24 -12.232 0
      vertex -23.7654 -12.3478 2
      vertex -24 -12.232 2
    endloop
  endfacet
  facet normal -0.442287 -0.896874 -0
    outer loop
      vertex -23.7654 -12.3478 2
      vertex -24 -12.232 0
      vertex -23.7654 -12.3478 0
    endloop
  endfacet
  facet normal -0.997859 -0.0654053 0
    outer loop
      vertex -24.9829 -10.7611 0
      vertex -25 -10.5 2
      vertex -25 -10.5 0
    endloop
  endfacet
  facet normal -0.997859 -0.0654053 0
    outer loop
      vertex -25 -10.5 2
      vertex -24.9829 -10.7611 0
      vertex -24.9829 -10.7611 2
    endloop
  endfacet
  facet normal 0.442287 0.896874 -0
    outer loop
      vertex 24 12.232 0
      vertex 23.7654 12.3478 2
      vertex 24 12.232 2
    endloop
  endfacet
  facet normal 0.442287 0.896874 0
    outer loop
      vertex 23.7654 12.3478 2
      vertex 24 12.232 0
      vertex 23.7654 12.3478 0
    endloop
  endfacet
  facet normal 0.659344 0.751841 -0
    outer loop
      vertex 24.4142 11.9142 0
      vertex 24.2175 12.0867 2
      vertex 24.4142 11.9142 2
    endloop
  endfacet
  facet normal 0.659344 0.751841 0
    outer loop
      vertex 24.2175 12.0867 2
      vertex 24.4142 11.9142 0
      vertex 24.2175 12.0867 0
    endloop
  endfacet
  facet normal 0.321442 0.946929 -0
    outer loop
      vertex 23.7654 12.3478 0
      vertex 23.5176 12.4319 2
      vertex 23.7654 12.3478 2
    endloop
  endfacet
  facet normal 0.321442 0.946929 0
    outer loop
      vertex 23.5176 12.4319 2
      vertex 23.7654 12.3478 0
      vertex 23.5176 12.4319 0
    endloop
  endfacet
  facet normal 0 -1 0
    outer loop
      vertex -23 -12.5 0
      vertex 23 -12.5 2
      vertex -23 -12.5 2
    endloop
  endfacet
  facet normal 0 -1 -0
    outer loop
      vertex 23 -12.5 2
      vertex -23 -12.5 0
      vertex 23 -12.5 0
    endloop
  endfacet
  facet normal -0.0654055 -0.997859 0
    outer loop
      vertex -23.2611 -12.4829 0
      vertex -23 -12.5 2
      vertex -23.2611 -12.4829 2
    endloop
  endfacet
  facet normal -0.0654055 -0.997859 -0
    outer loop
      vertex -23 -12.5 2
      vertex -23.2611 -12.4829 0
      vertex -23 -12.5 0
    endloop
  endfacet
  facet normal 0.75184 0.659346 0
    outer loop
      vertex 24.5867 11.7175 2
      vertex 24.4142 11.9142 0
      vertex 24.4142 11.9142 2
    endloop
  endfacet
  facet normal 0.75184 0.659346 0
    outer loop
      vertex 24.4142 11.9142 0
      vertex 24.5867 11.7175 2
      vertex 24.5867 11.7175 0
    endloop
  endfacet
  facet normal 0.997859 -0.0654053 0
    outer loop
      vertex 24.9829 -10.7611 2
      vertex 25 -10.5 0
      vertex 25 -10.5 2
    endloop
  endfacet
  facet normal 0.997859 -0.0654053 0
    outer loop
      vertex 25 -10.5 0
      vertex 24.9829 -10.7611 2
      vertex 24.9829 -10.7611 0
    endloop
  endfacet
  facet normal 1 -0 0
    outer loop
      vertex 25 -10.5 2
      vertex 25 10.5 0
      vertex 25 10.5 2
    endloop
  endfacet
  facet normal 1 0 0
    outer loop
      vertex 25 10.5 0
      vertex 25 -10.5 2
      vertex 25 -10.5 0
    endloop
  endfacet
  facet normal 0.442287 -0.896874 0
    outer loop
      vertex 23.7654 -12.3478 0
      vertex 24 -12.232 2
      vertex 23.7654 -12.3478 2
    endloop
  endfacet
  facet normal 0.442287 -0.896874 0
    outer loop
      vertex 24 -12.232 2
      vertex 23.7654 -12.3478 0
      vertex 24 -12.232 0
    endloop
  endfacet
  facet normal -1 0 0
    outer loop
      vertex -25 -10.5 0
      vertex -25 10.5 2
      vertex -25 10.5 0
    endloop
  endfacet
  facet normal -1 -0 0
    outer loop
      vertex -25 10.5 2
      vertex -25 -10.5 0
      vertex -25 -10.5 2
    endloop
  endfacet
  facet normal -0.831471 -0.555568 0
    outer loop
      vertex -24.5867 -11.7175 0
      vertex -24.732 -11.5 2
      vertex -24.732 -11.5 0
    endloop
  endfacet
  facet normal -0.831471 -0.555568 0
    outer loop
      vertex -24.732 -11.5 2
      vertex -24.5867 -11.7175 0
      vertex -24.5867 -11.7175 2
    endloop
  endfacet
  facet normal 0.555571 0.831469 -0
    outer loop
      vertex 24.2175 12.0867 0
      vertex 24 12.232 2
      vertex 24.2175 12.0867 2
    endloop
  endfacet
  facet normal 0.555571 0.831469 0
    outer loop
      vertex 24 12.232 2
      vertex 24.2175 12.0867 0
      vertex 24 12.232 0
    endloop
  endfacet
  facet normal 0.195089 0.980786 -0
    outer loop
      vertex 23.5176 12.4319 0
      vertex 23.2611 12.4829 2
      vertex 23.5176 12.4319 2
    endloop
  endfacet
  facet normal 0.195089 0.980786 0
    outer loop
      vertex 23.2611 12.4829 2
      vertex 23.5176 12.4319 0
      vertex 23.2611 12.4829 0
    endloop
  endfacet
  facet normal -0.195089 -0.980786 0
    outer loop
      vertex -23.5176 -12.4319 0
      vertex -23.2611 -12.4829 2
      vertex -23.5176 -12.4319 2
    endloop
  endfacet
  facet normal -0.195089 -0.980786 -0
    outer loop
      vertex -23.2611 -12.4829 2
      vertex -23.5176 -12.4319 0
      vertex -23.2611 -12.4829 0
    endloop
  endfacet
  facet normal 0.659344 -0.751841 0
    outer loop
      vertex 24.2175 -12.0867 0
      vertex 24.4142 -11.9142 2
      vertex 24.2175 -12.0867 2
    endloop
  endfacet
  facet normal 0.659344 -0.751841 0
    outer loop
      vertex 24.4142 -11.9142 2
      vertex 24.2175 -12.0867 0
      vertex 24.4142 -11.9142 0
    endloop
  endfacet
  facet normal -0.659344 -0.751841 0
    outer loop
      vertex -24.4142 -11.9142 0
      vertex -24.2175 -12.0867 2
      vertex -24.4142 -11.9142 2
    endloop
  endfacet
  facet normal -0.659344 -0.751841 -0
    outer loop
      vertex -24.2175 -12.0867 2
      vertex -24.4142 -11.9142 0
      vertex -24.2175 -12.0867 0
    endloop
  endfacet
  facet normal -0.659344 0.751841 0
    outer loop
      vertex -24.2175 12.0867 0
      vertex -24.4142 11.9142 2
      vertex -24.2175 12.0867 2
    endloop
  endfacet
  facet normal -0.659344 0.751841 0
    outer loop
      vertex -24.4142 11.9142 2
      vertex -24.2175 12.0867 0
      vertex -24.4142 11.9142 0
    endloop
  endfacet
  facet normal -0.321442 -0.946929 0
    outer loop
      vertex -23.7654 -12.3478 0
      vertex -23.5176 -12.4319 2
      vertex -23.7654 -12.3478 2
    endloop
  endfacet
  facet normal -0.321442 -0.946929 -0
    outer loop
      vertex -23.5176 -12.4319 2
      vertex -23.7654 -12.3478 0
      vertex -23.5176 -12.4319 0
    endloop
  endfacet
  facet normal 0.946932 0.321434 0
    outer loop
      vertex 24.9319 11.0176 2
      vertex 24.8478 11.2654 0
      vertex 24.8478 11.2654 2
    endloop
  endfacet
  facet normal 0.946932 0.321434 0
    outer loop
      vertex 24.8478 11.2654 0
      vertex 24.9319 11.0176 2
      vertex 24.9319 11.0176 0
    endloop
  endfacet
  facet normal 0.896871 -0.442291 0
    outer loop
      vertex 24.732 -11.5 2
      vertex 24.8478 -11.2654 0
      vertex 24.8478 -11.2654 2
    endloop
  endfacet
  facet normal 0.896871 -0.442291 0
    outer loop
      vertex 24.8478 -11.2654 0
      vertex 24.732 -11.5 2
      vertex 24.732 -11.5 0
    endloop
  endfacet
  facet normal 0.75184 -0.659346 0
    outer loop
      vertex 24.4142 -11.9142 2
      vertex 24.5867 -11.7175 0
      vertex 24.5867 -11.7175 2
    endloop
  endfacet
  facet normal 0.75184 -0.659346 0
    outer loop
      vertex 24.5867 -11.7175 0
      vertex 24.4142 -11.9142 2
      vertex 24.4142 -11.9142 0
    endloop
  endfacet
  facet normal 0.946932 -0.321434 0
    outer loop
      vertex 24.8478 -11.2654 2
      vertex 24.9319 -11.0176 0
      vertex 24.9319 -11.0176 2
    endloop
  endfacet
  facet normal 0.946932 -0.321434 0
    outer loop
      vertex 24.9319 -11.0176 0
      vertex 24.8478 -11.2654 2
      vertex 24.8478 -11.2654 0
    endloop
  endfacet
  facet normal -0.946932 -0.321434 0
    outer loop
      vertex -24.8478 -11.2654 0
      vertex -24.9319 -11.0176 2
      vertex -24.9319 -11.0176 0
    endloop
  endfacet
  facet normal -0.946932 -0.321434 0
    outer loop
      vertex -24.9319 -11.0176 2
      vertex -24.8478 -11.2654 0
      vertex -24.8478 -11.2654 2
    endloop
  endfacet
  facet normal -0.896871 -0.442293 0
    outer loop
      vertex -24.732 -11.5 0
      vertex -24.8478 -11.2654 2
      vertex -24.8478 -11.2654 0
    endloop
  endfacet
  facet normal -0.896871 -0.442293 0
    outer loop
      vertex -24.8478 -11.2654 2
      vertex -24.732 -11.5 0
      vertex -24.732 -11.5 2
    endloop
  endfacet
  facet normal 0 0 -1
    outer loop
      vertex 23 -12.5 0
      vertex 25 -10.5 0
      vertex 24.9829 -10.7611 0
    endloop
  endfacet
  facet normal -0 0 -1
    outer loop
      vertex 25 -10.5 0
      vertex 23 -12.5 0
      vertex 25 10.5 0
    endloop
  endfacet
  facet normal 0 0 -1
    outer loop
      vertex 23 -12.5 0
      vertex 24.9829 -10.7611 0
      vertex 24.9319 -11.0176 0
    endloop
  endfacet
  facet normal 0 0 -1
    outer loop
      vertex 23 12.5 0
      vertex 25 10.5 0
      vertex 23 -12.5 0
    endloop
  endfacet
  facet normal 0 0 -1
    outer loop
      vertex 23 -12.5 0
      vertex 24.9319 -11.0176 0
      vertex 24.8478 -11.2654 0
    endloop
  endfacet
  facet normal 0 0 -1
    outer loop
      vertex 25 10.5 0
      vertex 23 12.5 0
      vertex 24.9829 10.7611 0
    endloop
  endfacet
  facet normal 0 0 -1
    outer loop
      vertex 23 -12.5 0
      vertex 24.8478 -11.2654 0
      vertex 24.732 -11.5 0
    endloop
  endfacet
  facet normal 0 0 -1
    outer loop
      vertex 24.9829 10.7611 0
      vertex 23 12.5 0
      vertex 24.9319 11.0176 0
    endloop
  endfacet
  facet normal 0 0 -1
    outer loop
      vertex 23 -12.5 0
      vertex 24.732 -11.5 0
      vertex 24.5867 -11.7175 0
    endloop
  endfacet
  facet normal 0 0 -1
    outer loop
      vertex 24.9319 11.0176 0
      vertex 23 12.5 0
      vertex 24.8478 11.2654 0
    endloop
  endfacet
  facet normal 0 0 -1
    outer loop
      vertex 23 -12.5 0
      vertex 24.5867 -11.7175 0
      vertex 24.4142 -11.9142 0
    endloop
  endfacet
  facet normal 0 0 -1
    outer loop
      vertex 24.8478 11.2654 0
      vertex 23 12.5 0
      vertex 24.732 11.5 0
    endloop
  endfacet
  facet normal 0 0 -1
    outer loop
      vertex 23 -12.5 0
      vertex 24.4142 -11.9142 0
      vertex 24.2175 -12.0867 0
    endloop
  endfacet
  facet normal 0 0 -1
    outer loop
      vertex 24.732 11.5 0
      vertex 23 12.5 0
      vertex 24.5867 11.7175 0
    endloop
  endfacet
  facet normal 0 0 -1
    outer loop
      vertex 23 -12.5 0
      vertex 24.2175 -12.0867 0
      vertex 24 -12.232 0
    endloop
  endfacet
  facet normal 0 0 -1
    outer loop
      vertex 24.5867 11.7175 0
      vertex 23 12.5 0
      vertex 24.4142 11.9142 0
    endloop
  endfacet
  facet normal 0 0 -1
    outer loop
      vertex 23 -12.5 0
      vertex 24 -12.232 0
      vertex 23.7654 -12.3478 0
    endloop
  endfacet
  facet normal 0 0 -1
    outer loop
      vertex 24.4142 11.9142 0
      vertex 23 12.5 0
      vertex 24.2175 12.0867 0
    endloop
  endfacet
  facet normal 0 0 -1
    outer loop
      vertex 23 -12.5 0
      vertex 23.7654 -12.3478 0
      vertex 23.5176 -12.4319 0
    endloop
  endfacet
  facet normal 0 0 -1
    outer loop
      vertex 24.2175 12.0867 0
      vertex 23 12.5 0
      vertex 24 12.232 0
    endloop
  endfacet
  facet normal 0 0 -1
    outer loop
      vertex 23 -12.5 0
      vertex 23.5176 -12.4319 0
      vertex 23.2611 -12.4829 0
    endloop
  endfacet
  facet normal 0 0 -1
    outer loop
      vertex 24 12.232 0
      vertex 23 12.5 0
      vertex 23.7654 12.3478 0
    endloop
  endfacet
  facet normal 0 0 -1
    outer loop
      vertex 23.7654 12.3478 0
      vertex 23 12.5 0
      vertex 23.5176 12.4319 0
    endloop
  endfacet
  facet normal 0 0 -1
    outer loop
      vertex 23.5176 12.4319 0
      vertex 23 12.5 0
      vertex 23.2611 12.4829 0
    endloop
  endfacet
  facet normal 0 0 -1
    outer loop
      vertex -23 -12.5 0
      vertex 23 12.5 0
      vertex 23 -12.5 0
    endloop
  endfacet
  facet normal 0 0 -1
    outer loop
      vertex -23 -12.5 0
      vertex -23 12.5 0
      vertex 23 12.5 0
    endloop
  endfacet
  facet normal 0 0 -1
    outer loop
      vertex -25 -10.5 0
      vertex -23 -12.5 0
      vertex -23.2611 -12.4829 0
    endloop
  endfacet
  facet normal 0 0 -1
    outer loop
      vertex -23 -12.5 0
      vertex -25 -10.5 0
      vertex -23 12.5 0
    endloop
  endfacet
  facet normal 0 0 -1
    outer loop
      vertex -25 -10.5 0
      vertex -23.2611 -12.4829 0
      vertex -23.5176 -12.4319 0
    endloop
  endfacet
  facet normal 0 0 -1
    outer loop
      vertex -25 10.5 0
      vertex -23 12.5 0
      vertex -25 -10.5 0
    endloop
  endfacet
  facet normal 0 0 -1
    outer loop
      vertex -25 -10.5 0
      vertex -23.5176 -12.4319 0
      vertex -23.7654 -12.3478 0
    endloop
  endfacet
  facet normal 0 0 -1
    outer loop
      vertex -23 12.5 0
      vertex -25 10.5 0
      vertex -23.2611 12.4829 0
    endloop
  endfacet
  facet normal 0 0 -1
    outer loop
      vertex -25 -10.5 0
      vertex -23.7654 -12.3478 0
      vertex -24 -12.232 0
    endloop
  endfacet
  facet normal 0 0 -1
    outer loop
      vertex -23.2611 12.4829 0
      vertex -25 10.5 0
      vertex -23.5176 12.4319 0
    endloop
  endfacet
  facet normal 0 0 -1
    outer loop
      vertex -25 -10.5 0
      vertex -24 -12.232 0
      vertex -24.2175 -12.0867 0
    endloop
  endfacet
  facet normal 0 0 -1
    outer loop
      vertex -23.5176 12.4319 0
      vertex -25 10.5 0
      vertex -23.7654 12.3478 0
    endloop
  endfacet
  facet normal 0 0 -1
    outer loop
      vertex -25 -10.5 0
      vertex -24.2175 -12.0867 0
      vertex -24.4142 -11.9142 0
    endloop
  endfacet
  facet normal 0 0 -1
    outer loop
      vertex -23.7654 12.3478 0
      vertex -25 10.5 0
      vertex -24 12.232 0
    endloop
  endfacet
  facet normal 0 0 -1
    outer loop
      vertex -25 -10.5 0
      vertex -24.4142 -11.9142 0
      vertex -24.5867 -11.7175 0
    endloop
  endfacet
  facet normal 0 0 -1
    outer loop
      vertex -24 12.232 0
      vertex -25 10.5 0
      vertex -24.2175 12.0867 0
    endloop
  endfacet
  facet normal 0 0 -1
    outer loop
      vertex -25 -10.5 0
      vertex -24.5867 -11.7175 0
      vertex -24.732 -11.5 0
    endloop
  endfacet
  facet normal 0 0 -1
    outer loop
      vertex -24.2175 12.0867 0
      vertex -25 10.5 0
      vertex -24.4142 11.9142 0
    endloop
  endfacet
  facet normal 0 0 -1
    outer loop
      vertex -25 -10.5 0
      vertex -24.732 -11.5 0
      vertex -24.8478 -11.2654 0
    endloop
  endfacet
  facet normal 0 0 -1
    outer loop
      vertex -24.4142 11.9142 0
      vertex -25 10.5 0
      vertex -24.5867 11.7175 0
    endloop
  endfacet
  facet normal 0 0 -1
    outer loop
      vertex -25 -10.5 0
      vertex -24.8478 -11.2654 0
      vertex -24.9319 -11.0176 0
    endloop
  endfacet
  facet normal 0 0 -1
    outer loop
      vertex -24.5867 11.7175 0
      vertex -25 10.5 0
      vertex -24.732 11.5 0
    endloop
  endfacet
  facet normal 0 0 -1
    outer loop
      vertex -25 -10.5 0
      vertex -24.9319 -11.0176 0
      vertex -24.9829 -10.7611 0
    endloop
  endfacet
  facet normal 0 0 -1
    outer loop
      vertex -24.732 11.5 0
      vertex -25 10.5 0
      vertex -24.8478 11.2654 0
    endloop
  endfacet
  facet normal 0 0 -1
    outer loop
      vertex -24.8478 11.2654 0
      vertex -25 10.5 0
      vertex -24.9319 11.0176 0
    endloop
  endfacet
  facet normal 0 0 -1
    outer loop
      vertex -24.9319 11.0176 0
      vertex -25 10.5 0
      vertex -24.9829 10.7611 0
    endloop
  endfacet
  facet normal -0.555571 -0.831469 0
    outer loop
      vertex -24.2175 -12.0867 0
      vertex -24 -12.232 2
      vertex -24.2175 -12.0867 2
    endloop
  endfacet
  facet normal -0.555571 -0.831469 -0
    outer loop
      vertex -24 -12.232 2
      vertex -24.2175 -12.0867 0
      vertex -24 -12.232 0
    endloop
  endfacet
  facet normal -0.896871 0.442293 0
    outer loop
      vertex -24.8478 11.2654 0
      vertex -24.732 11.5 2
      vertex -24.732 11.5 0
    endloop
  endfacet
  facet normal -0.896871 0.442293 0
    outer loop
      vertex -24.732 11.5 2
      vertex -24.8478 11.2654 0
      vertex -24.8478 11.2654 2
    endloop
  endfacet
  facet normal -0.75184 0.659346 0
    outer loop
      vertex -24.5867 11.7175 0
      vertex -24.4142 11.9142 2
      vertex -24.4142 11.9142 0
    endloop
  endfacet
  facet normal -0.75184 0.659346 0
    outer loop
      vertex -24.4142 11.9142 2
      vertex -24.5867 11.7175 0
      vertex -24.5867 11.7175 2
    endloop
  endfacet
  facet normal -0.946932 0.321434 0
    outer loop
      vertex -24.9319 11.0176 0
      vertex -24.8478 11.2654 2
      vertex -24.8478 11.2654 0
    endloop
  endfacet
  facet normal -0.946932 0.321434 0
    outer loop
      vertex -24.8478 11.2654 2
      vertex -24.9319 11.0176 0
      vertex -24.9319 11.0176 2
    endloop
  endfacet
  facet normal -0.997859 0.0654053 0
    outer loop
      vertex -25 10.5 0
      vertex -24.9829 10.7611 2
      vertex -24.9829 10.7611 0
    endloop
  endfacet
  facet normal -0.997859 0.0654053 0
    outer loop
      vertex -24.9829 10.7611 2
      vertex -25 10.5 0
      vertex -25 10.5 2
    endloop
  endfacet
  facet normal -0.321442 0.946929 0
    outer loop
      vertex -23.5176 12.4319 0
      vertex -23.7654 12.3478 2
      vertex -23.5176 12.4319 2
    endloop
  endfacet
  facet normal -0.321442 0.946929 0
    outer loop
      vertex -23.7654 12.3478 2
      vertex -23.5176 12.4319 0
      vertex -23.7654 12.3478 0
    endloop
  endfacet
  facet normal -0.195089 0.980786 0
    outer loop
      vertex -23.2611 12.4829 0
      vertex -23.5176 12.4319 2
      vertex -23.2611 12.4829 2
    endloop
  endfacet
  facet normal -0.195089 0.980786 0
    outer loop
      vertex -23.5176 12.4319 2
      vertex -23.2611 12.4829 0
      vertex -23.5176 12.4319 0
    endloop
  endfacet
  facet normal -0.0654055 0.997859 0
    outer loop
      vertex -23 12.5 0
      vertex -23.2611 12.4829 2
      vertex -23 12.5 2
    endloop
  endfacet
  facet normal -0.0654055 0.997859 0
    outer loop
      vertex -23.2611 12.4829 2
      vertex -23 12.5 0
      vertex -23.2611 12.4829 0
    endloop
  endfacet
  facet normal 0.321442 -0.946929 0
    outer loop
      vertex 23.5176 -12.4319 0
      vertex 23.7654 -12.3478 2
      vertex 23.5176 -12.4319 2
    endloop
  endfacet
  facet normal 0.321442 -0.946929 0
    outer loop
      vertex 23.7654 -12.3478 2
      vertex 23.5176 -12.4319 0
      vertex 23.7654 -12.3478 0
    endloop
  endfacet
  facet normal 0.831471 0.555568 0
    outer loop
      vertex 24.732 11.5 2
      vertex 24.5867 11.7175 0
      vertex 24.5867 11.7175 2
    endloop
  endfacet
  facet normal 0.831471 0.555568 0
    outer loop
      vertex 24.5867 11.7175 0
      vertex 24.732 11.5 2
      vertex 24.732 11.5 0
    endloop
  endfacet
  facet normal 0.896871 0.442293 0
    outer loop
      vertex 24.8478 11.2654 2
      vertex 24.732 11.5 0
      vertex 24.732 11.5 2
    endloop
  endfacet
  facet normal 0.896871 0.442293 0
    outer loop
      vertex 24.732 11.5 0
      vertex 24.8478 11.2654 2
      vertex 24.8478 11.2654 0
    endloop
  endfacet
  facet normal 0.980785 0.195093 0
    outer loop
      vertex 24.9829 10.7611 2
      vertex 24.9319 11.0176 0
      vertex 24.9319 11.0176 2
    endloop
  endfacet
  facet normal 0.980785 0.195093 0
    outer loop
      vertex 24.9319 11.0176 0
      vertex 24.9829 10.7611 2
      vertex 24.9829 10.7611 0
    endloop
  endfacet
  facet normal 0.997859 0.0654053 0
    outer loop
      vertex 25 10.5 2
      vertex 24.9829 10.7611 0
      vertex 24.9829 10.7611 2
    endloop
  endfacet
  facet normal 0.997859 0.0654053 0
    outer loop
      vertex 24.9829 10.7611 0
      vertex 25 10.5 2
      vertex 25 10.5 0
    endloop
  endfacet
  facet normal 0.83147 -0.55557 0
    outer loop
      vertex 24.5867 -11.7175 2
      vertex 24.732 -11.5 0
      vertex 24.732 -11.5 2
    endloop
  endfacet
  facet normal 0.83147 -0.55557 0
    outer loop
      vertex 24.732 -11.5 0
      vertex 24.5867 -11.7175 2
      vertex 24.5867 -11.7175 0
    endloop
  endfacet
  facet normal 0.980785 -0.195093 0
    outer loop
      vertex 24.9319 -11.0176 2
      vertex 24.9829 -10.7611 0
      vertex 24.9829 -10.7611 2
    endloop
  endfacet
  facet normal 0.980785 -0.195093 0
    outer loop
      vertex 24.9829 -10.7611 0
      vertex 24.9319 -11.0176 2
      vertex 24.9319 -11.0176 0
    endloop
  endfacet
  facet normal -0.980785 -0.195093 0
    outer loop
      vertex -24.9319 -11.0176 0
      vertex -24.9829 -10.7611 2
      vertex -24.9829 -10.7611 0
    endloop
  endfacet
  facet normal -0.980785 -0.195093 0
    outer loop
      vertex -24.9829 -10.7611 2
      vertex -24.9319 -11.0176 0
      vertex -24.9319 -11.0176 2
    endloop
  endfacet
  facet normal -0.75184 -0.659346 0
    outer loop
      vertex -24.4142 -11.9142 0
      vertex -24.5867 -11.7175 2
      vertex -24.5867 -11.7175 0
    endloop
  endfacet
  facet normal -0.75184 -0.659346 0
    outer loop
      vertex -24.5867 -11.7175 2
      vertex -24.4142 -11.9142 0
      vertex -24.4142 -11.9142 2
    endloop
  endfacet
  facet normal -0.831471 0.555568 0
    outer loop
      vertex -24.732 11.5 0
      vertex -24.5867 11.7175 2
      vertex -24.5867 11.7175 0
    endloop
  endfacet
  facet normal -0.831471 0.555568 0
    outer loop
      vertex -24.5867 11.7175 2
      vertex -24.732 11.5 0
      vertex -24.732 11.5 2
    endloop
  endfacet
  facet normal -0.980785 0.195093 0
    outer loop
      vertex -24.9829 10.7611 0
      vertex -24.9319 11.0176 2
      vertex -24.9319 11.0176 0
    endloop
  endfacet
  facet normal -0.980785 0.195093 0
    outer loop
      vertex -24.9319 11.0176 2
      vertex -24.9829 10.7611 0
      vertex -24.9829 10.7611 2
    endloop
  endfacet
  facet normal -0.555571 0.831469 0
    outer loop
      vertex -24 12.232 0
      vertex -24.2175 12.0867 2
      vertex -24 12.232 2
    endloop
  endfacet
  facet normal -0.555571 0.831469 0
    outer loop
      vertex -24.2175 12.0867 2
      vertex -24 12.232 0
      vertex -24.2175 12.0867 0
    endloop
  endfacet
  facet normal -0.442287 0.896874 0
    outer loop
      vertex -23.7654 12.3478 0
      vertex -24 12.232 2
      vertex -23.7654 12.3478 2
    endloop
  endfacet
  facet normal -0.442287 0.896874 0
    outer loop
      vertex -24 12.232 2
      vertex -23.7654 12.3478 0
      vertex -24 12.232 0
    endloop
  endfacet
  facet normal 0.195089 -0.980786 0
    outer loop
      vertex 23.2611 -12.4829 0
      vertex 23.5176 -12.4319 2
      vertex 23.2611 -12.4829 2
    endloop
  endfacet
  facet normal 0.195089 -0.980786 0
    outer loop
      vertex 23.5176 -12.4319 2
      vertex 23.2611 -12.4829 0
      vertex 23.5176 -12.4319 0
    endloop
  endfacet
  facet normal 0.0654055 -0.997859 0
    outer loop
      vertex 23 -12.5 0
      vertex 23.2611 -12.4829 2
      vertex 23 -12.5 2
    endloop
  endfacet
  facet normal 0.0654055 -0.997859 0
    outer loop
      vertex 23.2611 -12.4829 2
      vertex 23 -12.5 0
      vertex 23.2611 -12.4829 0
    endloop
  endfacet
  facet normal 0.555571 -0.831469 0
    outer loop
      vertex 24 -12.232 0
      vertex 24.2175 -12.0867 2
      vertex 24 -12.232 2
    endloop
  endfacet
  facet normal 0.555571 -0.831469 0
    outer loop
      vertex 24.2175 -12.0867 2
      vertex 24 -12.232 0
      vertex 24.2175 -12.0867 0
    endloop
  endfacet
  facet normal 0.997859 0.0654054 0
    outer loop
      vertex -9.5 0 7
      vertex -9.52567 0.391578 2
      vertex -9.52567 0.391578 7
    endloop
  endfacet
  facet normal 0.997859 0.0654054 0
    outer loop
      vertex -9.52567 0.391578 2
      vertex -9.5 0 7
      vertex -9.5 0 2
    endloop
  endfacet
  facet normal -0.997859 -0.0654028 0
    outer loop
      vertex -15.4743 -0.391579 2
      vertex -15.5 0 7
      vertex -15.5 0 2
    endloop
  endfacet
  facet normal -0.997859 -0.0654028 0
    outer loop
      vertex -15.5 0 7
      vertex -15.4743 -0.391579 2
      vertex -15.4743 -0.391579 7
    endloop
  endfacet
  facet normal -0.0654052 0.997859 0
    outer loop
      vertex -12.5 3 2
      vertex -12.8916 2.97433 7
      vertex -12.5 3 7
    endloop
  endfacet
  facet normal -0.0654052 0.997859 0
    outer loop
      vertex -12.8916 2.97433 7
      vertex -12.5 3 2
      vertex -12.8916 2.97433 2
    endloop
  endfacet
  facet normal 0.0654029 -0.997859 0
    outer loop
      vertex -12.5 -3 2
      vertex -12.1084 -2.97433 7
      vertex -12.5 -3 7
    endloop
  endfacet
  facet normal 0.0654029 -0.997859 0
    outer loop
      vertex -12.1084 -2.97433 7
      vertex -12.5 -3 2
      vertex -12.1084 -2.97433 2
    endloop
  endfacet
  facet normal -0.659345 -0.75184 0
    outer loop
      vertex -14.6213 -2.12132 2
      vertex -14.3263 -2.38006 7
      vertex -14.6213 -2.12132 7
    endloop
  endfacet
  facet normal -0.659345 -0.75184 -0
    outer loop
      vertex -14.3263 -2.38006 7
      vertex -14.6213 -2.12132 2
      vertex -14.3263 -2.38006 2
    endloop
  endfacet
  facet normal 0.659345 0.75184 -0
    outer loop
      vertex -10.3787 2.12132 2
      vertex -10.6737 2.38006 7
      vertex -10.3787 2.12132 7
    endloop
  endfacet
  facet normal 0.659345 0.75184 0
    outer loop
      vertex -10.6737 2.38006 7
      vertex -10.3787 2.12132 2
      vertex -10.6737 2.38006 2
    endloop
  endfacet
  facet normal -0.75184 0.659345 0
    outer loop
      vertex -14.8801 1.82628 2
      vertex -14.6213 2.12132 7
      vertex -14.6213 2.12132 2
    endloop
  endfacet
  facet normal -0.75184 0.659345 0
    outer loop
      vertex -14.6213 2.12132 7
      vertex -14.8801 1.82628 2
      vertex -14.8801 1.82628 7
    endloop
  endfacet
  facet normal -0.442288 0.896873 0
    outer loop
      vertex -13.6481 2.77164 2
      vertex -14 2.59808 7
      vertex -13.6481 2.77164 7
    endloop
  endfacet
  facet normal -0.442288 0.896873 0
    outer loop
      vertex -14 2.59808 7
      vertex -13.6481 2.77164 2
      vertex -14 2.59808 2
    endloop
  endfacet
  facet normal -0.896873 -0.442288 0
    outer loop
      vertex -15.0981 -1.5 2
      vertex -15.2716 -1.14805 7
      vertex -15.2716 -1.14805 2
    endloop
  endfacet
  facet normal -0.896873 -0.442288 0
    outer loop
      vertex -15.2716 -1.14805 7
      vertex -15.0981 -1.5 2
      vertex -15.0981 -1.5 7
    endloop
  endfacet
  facet normal 0.896874 0.442287 0
    outer loop
      vertex -9.72836 1.14805 7
      vertex -9.90192 1.5 2
      vertex -9.90192 1.5 7
    endloop
  endfacet
  facet normal 0.896874 0.442287 0
    outer loop
      vertex -9.90192 1.5 2
      vertex -9.72836 1.14805 7
      vertex -9.72836 1.14805 2
    endloop
  endfacet
  facet normal 0.980785 0.19509 0
    outer loop
      vertex -9.52567 0.391578 7
      vertex -9.60222 0.776457 2
      vertex -9.60222 0.776457 7
    endloop
  endfacet
  facet normal 0.980785 0.19509 0
    outer loop
      vertex -9.60222 0.776457 2
      vertex -9.52567 0.391578 7
      vertex -9.52567 0.391578 2
    endloop
  endfacet
  facet normal 0.32144 0.94693 -0
    outer loop
      vertex -11.352 2.77164 2
      vertex -11.7235 2.89778 7
      vertex -11.352 2.77164 7
    endloop
  endfacet
  facet normal 0.32144 0.94693 0
    outer loop
      vertex -11.7235 2.89778 7
      vertex -11.352 2.77164 2
      vertex -11.7235 2.89778 2
    endloop
  endfacet
  facet normal 0.555572 0.831468 -0
    outer loop
      vertex -10.6737 2.38006 2
      vertex -11 2.59808 7
      vertex -10.6737 2.38006 7
    endloop
  endfacet
  facet normal 0.555572 0.831468 0
    outer loop
      vertex -11 2.59808 7
      vertex -10.6737 2.38006 2
      vertex -11 2.59808 2
    endloop
  endfacet
  facet normal -0.94693 0.32144 0
    outer loop
      vertex -15.3978 0.776457 2
      vertex -15.2716 1.14805 7
      vertex -15.2716 1.14805 2
    endloop
  endfacet
  facet normal -0.94693 0.32144 0
    outer loop
      vertex -15.2716 1.14805 7
      vertex -15.3978 0.776457 2
      vertex -15.3978 0.776457 7
    endloop
  endfacet
  facet normal -0.831468 0.555572 0
    outer loop
      vertex -15.0981 1.5 2
      vertex -14.8801 1.82628 7
      vertex -14.8801 1.82628 2
    endloop
  endfacet
  facet normal -0.831468 0.555572 0
    outer loop
      vertex -14.8801 1.82628 7
      vertex -15.0981 1.5 2
      vertex -15.0981 1.5 7
    endloop
  endfacet
  facet normal -0.980785 0.19509 0
    outer loop
      vertex -15.4743 0.391578 2
      vertex -15.3978 0.776457 7
      vertex -15.3978 0.776457 2
    endloop
  endfacet
  facet normal -0.980785 0.19509 0
    outer loop
      vertex -15.3978 0.776457 7
      vertex -15.4743 0.391578 2
      vertex -15.4743 0.391578 7
    endloop
  endfacet
  facet normal -0.19509 0.980785 0
    outer loop
      vertex -12.8916 2.97433 2
      vertex -13.2765 2.89778 7
      vertex -12.8916 2.97433 7
    endloop
  endfacet
  facet normal -0.19509 0.980785 0
    outer loop
      vertex -13.2765 2.89778 7
      vertex -12.8916 2.97433 2
      vertex -13.2765 2.89778 2
    endloop
  endfacet
  facet normal 0.19509 -0.980785 0
    outer loop
      vertex -12.1084 -2.97433 2
      vertex -11.7235 -2.89778 7
      vertex -12.1084 -2.97433 7
    endloop
  endfacet
  facet normal 0.19509 -0.980785 0
    outer loop
      vertex -11.7235 -2.89778 7
      vertex -12.1084 -2.97433 2
      vertex -11.7235 -2.89778 2
    endloop
  endfacet
  facet normal 0.831468 -0.555572 0
    outer loop
      vertex -10.1199 -1.82628 7
      vertex -9.90192 -1.5 2
      vertex -9.90192 -1.5 7
    endloop
  endfacet
  facet normal 0.831468 -0.555572 0
    outer loop
      vertex -9.90192 -1.5 2
      vertex -10.1199 -1.82628 7
      vertex -10.1199 -1.82628 2
    endloop
  endfacet
  facet normal 0.980785 -0.19509 0
    outer loop
      vertex -9.60222 -0.776458 7
      vertex -9.52567 -0.391579 2
      vertex -9.52567 -0.391579 7
    endloop
  endfacet
  facet normal 0.980785 -0.19509 0
    outer loop
      vertex -9.52567 -0.391579 2
      vertex -9.60222 -0.776458 7
      vertex -9.60222 -0.776458 2
    endloop
  endfacet
  facet normal -0.555572 -0.831468 0
    outer loop
      vertex -14.3263 -2.38006 2
      vertex -14 -2.59808 7
      vertex -14.3263 -2.38006 7
    endloop
  endfacet
  facet normal -0.555572 -0.831468 -0
    outer loop
      vertex -14 -2.59808 7
      vertex -14.3263 -2.38006 2
      vertex -14 -2.59808 2
    endloop
  endfacet
  facet normal -0.19509 -0.980785 0
    outer loop
      vertex -13.2765 -2.89778 2
      vertex -12.8916 -2.97433 7
      vertex -13.2765 -2.89778 7
    endloop
  endfacet
  facet normal -0.19509 -0.980785 -0
    outer loop
      vertex -12.8916 -2.97433 7
      vertex -13.2765 -2.89778 2
      vertex -12.8916 -2.97433 2
    endloop
  endfacet
  facet normal -0.980785 -0.19509 0
    outer loop
      vertex -15.3978 -0.776458 2
      vertex -15.4743 -0.391579 7
      vertex -15.4743 -0.391579 2
    endloop
  endfacet
  facet normal -0.980785 -0.19509 0
    outer loop
      vertex -15.4743 -0.391579 7
      vertex -15.3978 -0.776458 2
      vertex -15.3978 -0.776458 7
    endloop
  endfacet
  facet normal 0.94693 0.32144 0
    outer loop
      vertex -9.60222 0.776457 7
      vertex -9.72836 1.14805 2
      vertex -9.72836 1.14805 7
    endloop
  endfacet
  facet normal 0.94693 0.32144 0
    outer loop
      vertex -9.72836 1.14805 2
      vertex -9.60222 0.776457 7
      vertex -9.60222 0.776457 2
    endloop
  endfacet
  facet normal 0.75184 0.659345 0
    outer loop
      vertex -10.1199 1.82628 7
      vertex -10.3787 2.12132 2
      vertex -10.3787 2.12132 7
    endloop
  endfacet
  facet normal 0.75184 0.659345 0
    outer loop
      vertex -10.3787 2.12132 2
      vertex -10.1199 1.82628 7
      vertex -10.1199 1.82628 2
    endloop
  endfacet
  facet normal 0.831468 0.555572 0
    outer loop
      vertex -9.90192 1.5 7
      vertex -10.1199 1.82628 2
      vertex -10.1199 1.82628 7
    endloop
  endfacet
  facet normal 0.831468 0.555572 0
    outer loop
      vertex -10.1199 1.82628 2
      vertex -9.90192 1.5 7
      vertex -9.90192 1.5 2
    endloop
  endfacet
  facet normal 0.19509 0.980785 -0
    outer loop
      vertex -11.7235 2.89778 2
      vertex -12.1084 2.97433 7
      vertex -11.7235 2.89778 7
    endloop
  endfacet
  facet normal 0.19509 0.980785 0
    outer loop
      vertex -12.1084 2.97433 7
      vertex -11.7235 2.89778 2
      vertex -12.1084 2.97433 2
    endloop
  endfacet
  facet normal 0.0654054 0.997859 -0
    outer loop
      vertex -12.1084 2.97433 2
      vertex -12.5 3 7
      vertex -12.1084 2.97433 7
    endloop
  endfacet
  facet normal 0.0654054 0.997859 0
    outer loop
      vertex -12.5 3 7
      vertex -12.1084 2.97433 2
      vertex -12.5 3 2
    endloop
  endfacet
  facet normal 0.442287 0.896874 -0
    outer loop
      vertex -11 2.59808 2
      vertex -11.352 2.77164 7
      vertex -11 2.59808 7
    endloop
  endfacet
  facet normal 0.442287 0.896874 0
    outer loop
      vertex -11.352 2.77164 7
      vertex -11 2.59808 2
      vertex -11.352 2.77164 2
    endloop
  endfacet
  facet normal -0.896874 0.442287 0
    outer loop
      vertex -15.2716 1.14805 2
      vertex -15.0981 1.5 7
      vertex -15.0981 1.5 2
    endloop
  endfacet
  facet normal -0.896874 0.442287 0
    outer loop
      vertex -15.0981 1.5 7
      vertex -15.2716 1.14805 2
      vertex -15.2716 1.14805 7
    endloop
  endfacet
  facet normal -0.997859 0.0654029 0
    outer loop
      vertex -15.5 0 2
      vertex -15.4743 0.391578 7
      vertex -15.4743 0.391578 2
    endloop
  endfacet
  facet normal -0.997859 0.0654029 0
    outer loop
      vertex -15.4743 0.391578 7
      vertex -15.5 0 2
      vertex -15.5 0 7
    endloop
  endfacet
  facet normal 0 0 1
    outer loop
      vertex -9.52567 0.391578 7
      vertex -9.52567 -0.391579 7
      vertex -9.5 0 7
    endloop
  endfacet
  facet normal 0 0 1
    outer loop
      vertex -9.60222 0.776457 7
      vertex -9.52567 -0.391579 7
      vertex -9.52567 0.391578 7
    endloop
  endfacet
  facet normal 0 0 1
    outer loop
      vertex -9.60222 0.776457 7
      vertex -9.60222 -0.776458 7
      vertex -9.52567 -0.391579 7
    endloop
  endfacet
  facet normal 0 0 1
    outer loop
      vertex -9.72836 1.14805 7
      vertex -9.60222 -0.776458 7
      vertex -9.60222 0.776457 7
    endloop
  endfacet
  facet normal 0 0 1
    outer loop
      vertex -9.72836 1.14805 7
      vertex -9.72836 -1.14805 7
      vertex -9.60222 -0.776458 7
    endloop
  endfacet
  facet normal 0 0 1
    outer loop
      vertex -9.90192 1.5 7
      vertex -9.72836 -1.14805 7
      vertex -9.72836 1.14805 7
    endloop
  endfacet
  facet normal 0 0 1
    outer loop
      vertex -9.90192 1.5 7
      vertex -9.90192 -1.5 7
      vertex -9.72836 -1.14805 7
    endloop
  endfacet
  facet normal 0 0 1
    outer loop
      vertex -10.1199 1.82628 7
      vertex -9.90192 -1.5 7
      vertex -9.90192 1.5 7
    endloop
  endfacet
  facet normal 0 0 1
    outer loop
      vertex -10.1199 1.82628 7
      vertex -10.1199 -1.82628 7
      vertex -9.90192 -1.5 7
    endloop
  endfacet
  facet normal 0 0 1
    outer loop
      vertex -10.3787 2.12132 7
      vertex -10.1199 -1.82628 7
      vertex -10.1199 1.82628 7
    endloop
  endfacet
  facet normal 0 0 1
    outer loop
      vertex -10.3787 2.12132 7
      vertex -10.3787 -2.12132 7
      vertex -10.1199 -1.82628 7
    endloop
  endfacet
  facet normal 0 0 1
    outer loop
      vertex -10.6737 2.38006 7
      vertex -10.3787 -2.12132 7
      vertex -10.3787 2.12132 7
    endloop
  endfacet
  facet normal 0 0 1
    outer loop
      vertex -10.6737 2.38006 7
      vertex -10.6737 -2.38006 7
      vertex -10.3787 -2.12132 7
    endloop
  endfacet
  facet normal 0 0 1
    outer loop
      vertex -11 2.59808 7
      vertex -10.6737 -2.38006 7
      vertex -10.6737 2.38006 7
    endloop
  endfacet
  facet normal 0 0 1
    outer loop
      vertex -11 2.59808 7
      vertex -11 -2.59808 7
      vertex -10.6737 -2.38006 7
    endloop
  endfacet
  facet normal 0 0 1
    outer loop
      vertex -11.352 2.77164 7
      vertex -11 -2.59808 7
      vertex -11 2.59808 7
    endloop
  endfacet
  facet normal 0 0 1
    outer loop
      vertex -11.352 2.77164 7
      vertex -11.352 -2.77164 7
      vertex -11 -2.59808 7
    endloop
  endfacet
  facet normal 0 0 1
    outer loop
      vertex -11.7235 2.89778 7
      vertex -11.352 -2.77164 7
      vertex -11.352 2.77164 7
    endloop
  endfacet
  facet normal 0 0 1
    outer loop
      vertex -11.7235 2.89778 7
      vertex -11.7235 -2.89778 7
      vertex -11.352 -2.77164 7
    endloop
  endfacet
  facet normal 0 0 1
    outer loop
      vertex -12.1084 2.97433 7
      vertex -11.7235 -2.89778 7
      vertex -11.7235 2.89778 7
    endloop
  endfacet
  facet normal 0 0 1
    outer loop
      vertex -12.1084 2.97433 7
      vertex -12.1084 -2.97433 7
      vertex -11.7235 -2.89778 7
    endloop
  endfacet
  facet normal 0 0 1
    outer loop
      vertex -12.5 3 7
      vertex -12.1084 -2.97433 7
      vertex -12.1084 2.97433 7
    endloop
  endfacet
  facet normal 0 0 1
    outer loop
      vertex -12.5 3 7
      vertex -12.5 -3 7
      vertex -12.1084 -2.97433 7
    endloop
  endfacet
  facet normal -0 0 1
    outer loop
      vertex -12.8916 2.97433 7
      vertex -12.5 -3 7
      vertex -12.5 3 7
    endloop
  endfacet
  facet normal 0 0 1
    outer loop
      vertex -12.8916 2.97433 7
      vertex -12.8916 -2.97433 7
      vertex -12.5 -3 7
    endloop
  endfacet
  facet normal -0 0 1
    outer loop
      vertex -13.2765 2.89778 7
      vertex -12.8916 -2.97433 7
      vertex -12.8916 2.97433 7
    endloop
  endfacet
  facet normal 0 0 1
    outer loop
      vertex -13.2765 2.89778 7
      vertex -13.2765 -2.89778 7
      vertex -12.8916 -2.97433 7
    endloop
  endfacet
  facet normal -0 0 1
    outer loop
      vertex -13.6481 2.77164 7
      vertex -13.2765 -2.89778 7
      vertex -13.2765 2.89778 7
    endloop
  endfacet
  facet normal 0 0 1
    outer loop
      vertex -13.6481 2.77164 7
      vertex -13.6481 -2.77164 7
      vertex -13.2765 -2.89778 7
    endloop
  endfacet
  facet normal -0 0 1
    outer loop
      vertex -14 2.59808 7
      vertex -13.6481 -2.77164 7
      vertex -13.6481 2.77164 7
    endloop
  endfacet
  facet normal 0 0 1
    outer loop
      vertex -14 2.59808 7
      vertex -14 -2.59808 7
      vertex -13.6481 -2.77164 7
    endloop
  endfacet
  facet normal -0 0 1
    outer loop
      vertex -14.3263 2.38006 7
      vertex -14 -2.59808 7
      vertex -14 2.59808 7
    endloop
  endfacet
  facet normal 0 0 1
    outer loop
      vertex -14.3263 2.38006 7
      vertex -14.3263 -2.38006 7
      vertex -14 -2.59808 7
    endloop
  endfacet
  facet normal -0 0 1
    outer loop
      vertex -14.6213 2.12132 7
      vertex -14.3263 -2.38006 7
      vertex -14.3263 2.38006 7
    endloop
  endfacet
  facet normal 0 0 1
    outer loop
      vertex -14.6213 2.12132 7
      vertex -14.6213 -2.12132 7
      vertex -14.3263 -2.38006 7
    endloop
  endfacet
  facet normal -0 0 1
    outer loop
      vertex -14.8801 1.82628 7
      vertex -14.6213 -2.12132 7
      vertex -14.6213 2.12132 7
    endloop
  endfacet
  facet normal 0 0 1
    outer loop
      vertex -14.8801 1.82628 7
      vertex -14.8801 -1.82628 7
      vertex -14.6213 -2.12132 7
    endloop
  endfacet
  facet normal -0 0 1
    outer loop
      vertex -15.0981 1.5 7
      vertex -14.8801 -1.82628 7
      vertex -14.8801 1.82628 7
    endloop
  endfacet
  facet normal 0 0 1
    outer loop
      vertex -15.0981 1.5 7
      vertex -15.0981 -1.5 7
      vertex -14.8801 -1.82628 7
    endloop
  endfacet
  facet normal -0 0 1
    outer loop
      vertex -15.2716 1.14805 7
      vertex -15.0981 -1.5 7
      vertex -15.0981 1.5 7
    endloop
  endfacet
  facet normal 0 0 1
    outer loop
      vertex -15.2716 1.14805 7
      vertex -15.2716 -1.14805 7
      vertex -15.0981 -1.5 7
    endloop
  endfacet
  facet normal -0 0 1
    outer loop
      vertex -15.3978 0.776457 7
      vertex -15.2716 -1.14805 7
      vertex -15.2716 1.14805 7
    endloop
  endfacet
  facet normal 0 0 1
    outer loop
      vertex -15.3978 0.776457 7
      vertex -15.3978 -0.776458 7
      vertex -15.2716 -1.14805 7
    endloop
  endfacet
  facet normal -0 0 1
    outer loop
      vertex -15.4743 0.391578 7
      vertex -15.3978 -0.776458 7
      vertex -15.3978 0.776457 7
    endloop
  endfacet
  facet normal 0 0 1
    outer loop
      vertex -15.4743 0.391578 7
      vertex -15.4743 -0.391579 7
      vertex -15.3978 -0.776458 7
    endloop
  endfacet
  facet normal 0 -0 1
    outer loop
      vertex -15.4743 -0.391579 7
      vertex -15.4743 0.391578 7
      vertex -15.5 0 7
    endloop
  endfacet
  facet normal -0.555571 0.831469 0
    outer loop
      vertex -14 2.59808 2
      vertex -14.3263 2.38006 7
      vertex -14 2.59808 7
    endloop
  endfacet
  facet normal -0.555571 0.831469 0
    outer loop
      vertex -14.3263 2.38006 7
      vertex -14 2.59808 2
      vertex -14.3263 2.38006 2
    endloop
  endfacet
  facet normal -0.659345 0.75184 0
    outer loop
      vertex -14.3263 2.38006 2
      vertex -14.6213 2.12132 7
      vertex -14.3263 2.38006 7
    endloop
  endfacet
  facet normal -0.659345 0.75184 0
    outer loop
      vertex -14.6213 2.12132 7
      vertex -14.3263 2.38006 2
      vertex -14.6213 2.12132 2
    endloop
  endfacet
  facet normal -0.32144 0.94693 0
    outer loop
      vertex -13.2765 2.89778 2
      vertex -13.6481 2.77164 7
      vertex -13.2765 2.89778 7
    endloop
  endfacet
  facet normal -0.32144 0.94693 0
    outer loop
      vertex -13.6481 2.77164 7
      vertex -13.2765 2.89778 2
      vertex -13.6481 2.77164 2
    endloop
  endfacet
  facet normal 0.32144 -0.94693 0
    outer loop
      vertex -11.7235 -2.89778 2
      vertex -11.352 -2.77164 7
      vertex -11.7235 -2.89778 7
    endloop
  endfacet
  facet normal 0.32144 -0.94693 0
    outer loop
      vertex -11.352 -2.77164 7
      vertex -11.7235 -2.89778 2
      vertex -11.352 -2.77164 2
    endloop
  endfacet
  facet normal 0.75184 -0.659345 0
    outer loop
      vertex -10.3787 -2.12132 7
      vertex -10.1199 -1.82628 2
      vertex -10.1199 -1.82628 7
    endloop
  endfacet
  facet normal 0.75184 -0.659345 0
    outer loop
      vertex -10.1199 -1.82628 2
      vertex -10.3787 -2.12132 7
      vertex -10.3787 -2.12132 2
    endloop
  endfacet
  facet normal 0.555572 -0.831468 0
    outer loop
      vertex -11 -2.59808 2
      vertex -10.6737 -2.38006 7
      vertex -11 -2.59808 7
    endloop
  endfacet
  facet normal 0.555572 -0.831468 0
    outer loop
      vertex -10.6737 -2.38006 7
      vertex -11 -2.59808 2
      vertex -10.6737 -2.38006 2
    endloop
  endfacet
  facet normal 0.896874 -0.442287 0
    outer loop
      vertex -9.90192 -1.5 7
      vertex -9.72836 -1.14805 2
      vertex -9.72836 -1.14805 7
    endloop
  endfacet
  facet normal 0.896874 -0.442287 0
    outer loop
      vertex -9.72836 -1.14805 2
      vertex -9.90192 -1.5 7
      vertex -9.90192 -1.5 2
    endloop
  endfacet
  facet normal -0.442287 -0.896874 0
    outer loop
      vertex -14 -2.59808 2
      vertex -13.6481 -2.77164 7
      vertex -14 -2.59808 7
    endloop
  endfacet
  facet normal -0.442287 -0.896874 -0
    outer loop
      vertex -13.6481 -2.77164 7
      vertex -14 -2.59808 2
      vertex -13.6481 -2.77164 2
    endloop
  endfacet
  facet normal -0.0654028 -0.997859 0
    outer loop
      vertex -12.8916 -2.97433 2
      vertex -12.5 -3 7
      vertex -12.8916 -2.97433 7
    endloop
  endfacet
  facet normal -0.0654028 -0.997859 -0
    outer loop
      vertex -12.5 -3 7
      vertex -12.8916 -2.97433 2
      vertex -12.5 -3 2
    endloop
  endfacet
  facet normal -0.831469 -0.555571 0
    outer loop
      vertex -14.8801 -1.82628 2
      vertex -15.0981 -1.5 7
      vertex -15.0981 -1.5 2
    endloop
  endfacet
  facet normal -0.831469 -0.555571 0
    outer loop
      vertex -15.0981 -1.5 7
      vertex -14.8801 -1.82628 2
      vertex -14.8801 -1.82628 7
    endloop
  endfacet
  facet normal -0.94693 -0.32144 0
    outer loop
      vertex -15.2716 -1.14805 2
      vertex -15.3978 -0.776458 7
      vertex -15.3978 -0.776458 2
    endloop
  endfacet
  facet normal -0.94693 -0.32144 0
    outer loop
      vertex -15.3978 -0.776458 7
      vertex -15.2716 -1.14805 2
      vertex -15.2716 -1.14805 7
    endloop
  endfacet
  facet normal 0.997859 -0.0654052 0
    outer loop
      vertex -9.52567 -0.391579 7
      vertex -9.5 0 2
      vertex -9.5 0 7
    endloop
  endfacet
  facet normal 0.997859 -0.0654052 0
    outer loop
      vertex -9.5 0 2
      vertex -9.52567 -0.391579 7
      vertex -9.52567 -0.391579 2
    endloop
  endfacet
  facet normal 0.442287 -0.896874 0
    outer loop
      vertex -11.352 -2.77164 2
      vertex -11 -2.59808 7
      vertex -11.352 -2.77164 7
    endloop
  endfacet
  facet normal 0.442287 -0.896874 0
    outer loop
      vertex -11 -2.59808 7
      vertex -11.352 -2.77164 2
      vertex -11 -2.59808 2
    endloop
  endfacet
  facet normal 0.659345 -0.75184 0
    outer loop
      vertex -10.6737 -2.38006 2
      vertex -10.3787 -2.12132 7
      vertex -10.6737 -2.38006 7
    endloop
  endfacet
  facet normal 0.659345 -0.75184 0
    outer loop
      vertex -10.3787 -2.12132 7
      vertex -10.6737 -2.38006 2
      vertex -10.3787 -2.12132 2
    endloop
  endfacet
  facet normal 0.94693 -0.32144 0
    outer loop
      vertex -9.72836 -1.14805 7
      vertex -9.60222 -0.776458 2
      vertex -9.60222 -0.776458 7
    endloop
  endfacet
  facet normal 0.94693 -0.32144 0
    outer loop
      vertex -9.60222 -0.776458 2
      vertex -9.72836 -1.14805 7
      vertex -9.72836 -1.14805 2
    endloop
  endfacet
  facet normal -0.32144 -0.94693 0
    outer loop
      vertex -13.6481 -2.77164 2
      vertex -13.2765 -2.89778 7
      vertex -13.6481 -2.77164 7
    endloop
  endfacet
  facet normal -0.32144 -0.94693 -0
    outer loop
      vertex -13.2765 -2.89778 7
      vertex -13.6481 -2.77164 2
      vertex -13.2765 -2.89778 2
    endloop
  endfacet
  facet normal -0.75184 -0.659345 0
    outer loop
      vertex -14.6213 -2.12132 2
      vertex -14.8801 -1.82628 7
      vertex -14.8801 -1.82628 2
    endloop
  endfacet
  facet normal -0.75184 -0.659345 0
    outer loop
      vertex -14.8801 -1.82628 7
      vertex -14.6213 -2.12132 2
      vertex -14.6213 -2.12132 7
    endloop
  endfacet
  facet normal 0.997859 0.0654054 0
    outer loop
      vertex 15.5 0 7
      vertex 15.4743 0.391578 2
      vertex 15.4743 0.391578 7
    endloop
  endfacet
  facet normal 0.997859 0.0654054 0
    outer loop
      vertex 15.4743 0.391578 2
      vertex 15.5 0 7
      vertex 15.5 0 2
    endloop
  endfacet
  facet normal -0.997859 -0.0654028 0
    outer loop
      vertex 9.52567 -0.391579 2
      vertex 9.5 0 7
      vertex 9.5 0 2
    endloop
  endfacet
  facet normal -0.997859 -0.0654028 0
    outer loop
      vertex 9.5 0 7
      vertex 9.52567 -0.391579 2
      vertex 9.52567 -0.391579 7
    endloop
  endfacet
  facet normal -0.0654052 0.997859 0
    outer loop
      vertex 12.5 3 2
      vertex 12.1084 2.97433 7
      vertex 12.5 3 7
    endloop
  endfacet
  facet normal -0.0654052 0.997859 0
    outer loop
      vertex 12.1084 2.97433 7
      vertex 12.5 3 2
      vertex 12.1084 2.97433 2
    endloop
  endfacet
  facet normal 0.0654029 -0.997859 0
    outer loop
      vertex 12.5 -3 2
      vertex 12.8916 -2.97433 7
      vertex 12.5 -3 7
    endloop
  endfacet
  facet normal 0.0654029 -0.997859 0
    outer loop
      vertex 12.8916 -2.97433 7
      vertex 12.5 -3 2
      vertex 12.8916 -2.97433 2
    endloop
  endfacet
  facet normal 0.659345 0.75184 -0
    outer loop
      vertex 14.6213 2.12132 2
      vertex 14.3263 2.38006 7
      vertex 14.6213 2.12132 7
    endloop
  endfacet
  facet normal 0.659345 0.75184 0
    outer loop
      vertex 14.3263 2.38006 7
      vertex 14.6213 2.12132 2
      vertex 14.3263 2.38006 2
    endloop
  endfacet
  facet normal -0.75184 0.659345 0
    outer loop
      vertex 10.1199 1.82628 2
      vertex 10.3787 2.12132 7
      vertex 10.3787 2.12132 2
    endloop
  endfacet
  facet normal -0.75184 0.659345 0
    outer loop
      vertex 10.3787 2.12132 7
      vertex 10.1199 1.82628 2
      vertex 10.1199 1.82628 7
    endloop
  endfacet
  facet normal -0.442288 0.896873 0
    outer loop
      vertex 11.3519 2.77164 2
      vertex 11 2.59808 7
      vertex 11.3519 2.77164 7
    endloop
  endfacet
  facet normal -0.442288 0.896873 0
    outer loop
      vertex 11 2.59808 7
      vertex 11.3519 2.77164 2
      vertex 11 2.59808 2
    endloop
  endfacet
  facet normal 0.896874 0.442287 0
    outer loop
      vertex 15.2716 1.14805 7
      vertex 15.0981 1.5 2
      vertex 15.0981 1.5 7
    endloop
  endfacet
  facet normal 0.896874 0.442287 0
    outer loop
      vertex 15.0981 1.5 2
      vertex 15.2716 1.14805 7
      vertex 15.2716 1.14805 2
    endloop
  endfacet
  facet normal 0.980785 0.19509 0
    outer loop
      vertex 15.4743 0.391578 7
      vertex 15.3978 0.776457 2
      vertex 15.3978 0.776457 7
    endloop
  endfacet
  facet normal 0.980785 0.19509 0
    outer loop
      vertex 15.3978 0.776457 2
      vertex 15.4743 0.391578 7
      vertex 15.4743 0.391578 2
    endloop
  endfacet
  facet normal 0.32144 0.94693 -0
    outer loop
      vertex 13.648 2.77164 2
      vertex 13.2765 2.89778 7
      vertex 13.648 2.77164 7
    endloop
  endfacet
  facet normal 0.32144 0.94693 0
    outer loop
      vertex 13.2765 2.89778 7
      vertex 13.648 2.77164 2
      vertex 13.2765 2.89778 2
    endloop
  endfacet
  facet normal 0.555572 0.831468 -0
    outer loop
      vertex 14.3263 2.38006 2
      vertex 14 2.59808 7
      vertex 14.3263 2.38006 7
    endloop
  endfacet
  facet normal 0.555572 0.831468 0
    outer loop
      vertex 14 2.59808 7
      vertex 14.3263 2.38006 2
      vertex 14 2.59808 2
    endloop
  endfacet
  facet normal -0.94693 0.32144 0
    outer loop
      vertex 9.60222 0.776457 2
      vertex 9.72836 1.14805 7
      vertex 9.72836 1.14805 2
    endloop
  endfacet
  facet normal -0.94693 0.32144 0
    outer loop
      vertex 9.72836 1.14805 7
      vertex 9.60222 0.776457 2
      vertex 9.60222 0.776457 7
    endloop
  endfacet
  facet normal -0.831468 0.555572 0
    outer loop
      vertex 9.90192 1.5 2
      vertex 10.1199 1.82628 7
      vertex 10.1199 1.82628 2
    endloop
  endfacet
  facet normal -0.831468 0.555572 0
    outer loop
      vertex 10.1199 1.82628 7
      vertex 9.90192 1.5 2
      vertex 9.90192 1.5 7
    endloop
  endfacet
  facet normal -0.980785 0.19509 0
    outer loop
      vertex 9.52567 0.391578 2
      vertex 9.60222 0.776457 7
      vertex 9.60222 0.776457 2
    endloop
  endfacet
  facet normal -0.980785 0.19509 0
    outer loop
      vertex 9.60222 0.776457 7
      vertex 9.52567 0.391578 2
      vertex 9.52567 0.391578 7
    endloop
  endfacet
  facet normal -0.19509 0.980785 0
    outer loop
      vertex 12.1084 2.97433 2
      vertex 11.7235 2.89778 7
      vertex 12.1084 2.97433 7
    endloop
  endfacet
  facet normal -0.19509 0.980785 0
    outer loop
      vertex 11.7235 2.89778 7
      vertex 12.1084 2.97433 2
      vertex 11.7235 2.89778 2
    endloop
  endfacet
  facet normal 0.19509 -0.980785 0
    outer loop
      vertex 12.8916 -2.97433 2
      vertex 13.2765 -2.89778 7
      vertex 12.8916 -2.97433 7
    endloop
  endfacet
  facet normal 0.19509 -0.980785 0
    outer loop
      vertex 13.2765 -2.89778 7
      vertex 12.8916 -2.97433 2
      vertex 13.2765 -2.89778 2
    endloop
  endfacet
  facet normal 0.831468 -0.555572 0
    outer loop
      vertex 14.8801 -1.82628 7
      vertex 15.0981 -1.5 2
      vertex 15.0981 -1.5 7
    endloop
  endfacet
  facet normal 0.831468 -0.555572 0
    outer loop
      vertex 15.0981 -1.5 2
      vertex 14.8801 -1.82628 7
      vertex 14.8801 -1.82628 2
    endloop
  endfacet
  facet normal 0.980785 -0.19509 0
    outer loop
      vertex 15.3978 -0.776458 7
      vertex 15.4743 -0.391579 2
      vertex 15.4743 -0.391579 7
    endloop
  endfacet
  facet normal 0.980785 -0.19509 0
    outer loop
      vertex 15.4743 -0.391579 2
      vertex 15.3978 -0.776458 7
      vertex 15.3978 -0.776458 2
    endloop
  endfacet
  facet normal -0.555571 -0.831469 0
    outer loop
      vertex 10.6737 -2.38006 2
      vertex 11 -2.59808 7
      vertex 10.6737 -2.38006 7
    endloop
  endfacet
  facet normal -0.555571 -0.831469 -0
    outer loop
      vertex 11 -2.59808 7
      vertex 10.6737 -2.38006 2
      vertex 11 -2.59808 2
    endloop
  endfacet
  facet normal -0.19509 -0.980785 0
    outer loop
      vertex 11.7235 -2.89778 2
      vertex 12.1084 -2.97433 7
      vertex 11.7235 -2.89778 7
    endloop
  endfacet
  facet normal -0.19509 -0.980785 -0
    outer loop
      vertex 12.1084 -2.97433 7
      vertex 11.7235 -2.89778 2
      vertex 12.1084 -2.97433 2
    endloop
  endfacet
  facet normal -0.980785 -0.19509 0
    outer loop
      vertex 9.60222 -0.776458 2
      vertex 9.52567 -0.391579 7
      vertex 9.52567 -0.391579 2
    endloop
  endfacet
  facet normal -0.980785 -0.19509 0
    outer loop
      vertex 9.52567 -0.391579 7
      vertex 9.60222 -0.776458 2
      vertex 9.60222 -0.776458 7
    endloop
  endfacet
  facet normal 0.94693 0.32144 0
    outer loop
      vertex 15.3978 0.776457 7
      vertex 15.2716 1.14805 2
      vertex 15.2716 1.14805 7
    endloop
  endfacet
  facet normal 0.94693 0.32144 0
    outer loop
      vertex 15.2716 1.14805 2
      vertex 15.3978 0.776457 7
      vertex 15.3978 0.776457 2
    endloop
  endfacet
  facet normal 0.75184 0.659345 0
    outer loop
      vertex 14.8801 1.82628 7
      vertex 14.6213 2.12132 2
      vertex 14.6213 2.12132 7
    endloop
  endfacet
  facet normal 0.75184 0.659345 0
    outer loop
      vertex 14.6213 2.12132 2
      vertex 14.8801 1.82628 7
      vertex 14.8801 1.82628 2
    endloop
  endfacet
  facet normal 0.831468 0.555572 0
    outer loop
      vertex 15.0981 1.5 7
      vertex 14.8801 1.82628 2
      vertex 14.8801 1.82628 7
    endloop
  endfacet
  facet normal 0.831468 0.555572 0
    outer loop
      vertex 14.8801 1.82628 2
      vertex 15.0981 1.5 7
      vertex 15.0981 1.5 2
    endloop
  endfacet
  facet normal 0.19509 0.980785 -0
    outer loop
      vertex 13.2765 2.89778 2
      vertex 12.8916 2.97433 7
      vertex 13.2765 2.89778 7
    endloop
  endfacet
  facet normal 0.19509 0.980785 0
    outer loop
      vertex 12.8916 2.97433 7
      vertex 13.2765 2.89778 2
      vertex 12.8916 2.97433 2
    endloop
  endfacet
  facet normal 0.0654054 0.997859 -0
    outer loop
      vertex 12.8916 2.97433 2
      vertex 12.5 3 7
      vertex 12.8916 2.97433 7
    endloop
  endfacet
  facet normal 0.0654054 0.997859 0
    outer loop
      vertex 12.5 3 7
      vertex 12.8916 2.97433 2
      vertex 12.5 3 2
    endloop
  endfacet
  facet normal 0.442287 0.896874 -0
    outer loop
      vertex 14 2.59808 2
      vertex 13.648 2.77164 7
      vertex 14 2.59808 7
    endloop
  endfacet
  facet normal 0.442287 0.896874 0
    outer loop
      vertex 13.648 2.77164 7
      vertex 14 2.59808 2
      vertex 13.648 2.77164 2
    endloop
  endfacet
  facet normal -0.896874 0.442287 0
    outer loop
      vertex 9.72836 1.14805 2
      vertex 9.90192 1.5 7
      vertex 9.90192 1.5 2
    endloop
  endfacet
  facet normal -0.896874 0.442287 0
    outer loop
      vertex 9.90192 1.5 7
      vertex 9.72836 1.14805 2
      vertex 9.72836 1.14805 7
    endloop
  endfacet
  facet normal -0.997859 0.0654029 0
    outer loop
      vertex 9.5 0 2
      vertex 9.52567 0.391578 7
      vertex 9.52567 0.391578 2
    endloop
  endfacet
  facet normal -0.997859 0.0654029 0
    outer loop
      vertex 9.52567 0.391578 7
      vertex 9.5 0 2
      vertex 9.5 0 7
    endloop
  endfacet
  facet normal 0 0 1
    outer loop
      vertex 15.4743 0.391578 7
      vertex 15.4743 -0.391579 7
      vertex 15.5 0 7
    endloop
  endfacet
  facet normal 0 0 1
    outer loop
      vertex 15.3978 0.776457 7
      vertex 15.4743 -0.391579 7
      vertex 15.4743 0.391578 7
    endloop
  endfacet
  facet normal 0 0 1
    outer loop
      vertex 15.3978 0.776457 7
      vertex 15.3978 -0.776458 7
      vertex 15.4743 -0.391579 7
    endloop
  endfacet
  facet normal 0 0 1
    outer loop
      vertex 15.2716 1.14805 7
      vertex 15.3978 -0.776458 7
      vertex 15.3978 0.776457 7
    endloop
  endfacet
  facet normal 0 0 1
    outer loop
      vertex 15.2716 1.14805 7
      vertex 15.2716 -1.14805 7
      vertex 15.3978 -0.776458 7
    endloop
  endfacet
  facet normal 0 0 1
    outer loop
      vertex 15.0981 1.5 7
      vertex 15.2716 -1.14805 7
      vertex 15.2716 1.14805 7
    endloop
  endfacet
  facet normal 0 0 1
    outer loop
      vertex 15.0981 1.5 7
      vertex 15.0981 -1.5 7
      vertex 15.2716 -1.14805 7
    endloop
  endfacet
  facet normal 0 0 1
    outer loop
      vertex 14.8801 1.82628 7
      vertex 15.0981 -1.5 7
      vertex 15.0981 1.5 7
    endloop
  endfacet
  facet normal 0 0 1
    outer loop
      vertex 14.8801 1.82628 7
      vertex 14.8801 -1.82628 7
      vertex 15.0981 -1.5 7
    endloop
  endfacet
  facet normal 0 0 1
    outer loop
      vertex 14.6213 2.12132 7
      vertex 14.8801 -1.82628 7
      vertex 14.8801 1.82628 7
    endloop
  endfacet
  facet normal 0 0 1
    outer loop
      vertex 14.6213 2.12132 7
      vertex 14.6213 -2.12132 7
      vertex 14.8801 -1.82628 7
    endloop
  endfacet
  facet normal 0 0 1
    outer loop
      vertex 14.3263 2.38006 7
      vertex 14.6213 -2.12132 7
      vertex 14.6213 2.12132 7
    endloop
  endfacet
  facet normal 0 0 1
    outer loop
      vertex 14.3263 2.38006 7
      vertex 14.3263 -2.38006 7
      vertex 14.6213 -2.12132 7
    endloop
  endfacet
  facet normal 0 0 1
    outer loop
      vertex 14 2.59808 7
      vertex 14.3263 -2.38006 7
      vertex 14.3263 2.38006 7
    endloop
  endfacet
  facet normal 0 0 1
    outer loop
      vertex 14 2.59808 7
      vertex 14 -2.59808 7
      vertex 14.3263 -2.38006 7
    endloop
  endfacet
  facet normal 0 0 1
    outer loop
      vertex 13.648 2.77164 7
      vertex 14 -2.59808 7
      vertex 14 2.59808 7
    endloop
  endfacet
  facet normal 0 0 1
    outer loop
      vertex 13.648 2.77164 7
      vertex 13.648 -2.77164 7
      vertex 14 -2.59808 7
    endloop
  endfacet
  facet normal 0 0 1
    outer loop
      vertex 13.2765 2.89778 7
      vertex 13.648 -2.77164 7
      vertex 13.648 2.77164 7
    endloop
  endfacet
  facet normal 0 0 1
    outer loop
      vertex 13.2765 2.89778 7
      vertex 13.2765 -2.89778 7
      vertex 13.648 -2.77164 7
    endloop
  endfacet
  facet normal 0 0 1
    outer loop
      vertex 12.8916 2.97433 7
      vertex 13.2765 -2.89778 7
      vertex 13.2765 2.89778 7
    endloop
  endfacet
  facet normal 0 0 1
    outer loop
      vertex 12.8916 2.97433 7
      vertex 12.8916 -2.97433 7
      vertex 13.2765 -2.89778 7
    endloop
  endfacet
  facet normal 0 0 1
    outer loop
      vertex 12.5 3 7
      vertex 12.8916 -2.97433 7
      vertex 12.8916 2.97433 7
    endloop
  endfacet
  facet normal 0 0 1
    outer loop
      vertex 12.5 3 7
      vertex 12.5 -3 7
      vertex 12.8916 -2.97433 7
    endloop
  endfacet
  facet normal -0 0 1
    outer loop
      vertex 12.1084 2.97433 7
      vertex 12.5 -3 7
      vertex 12.5 3 7
    endloop
  endfacet
  facet normal 0 0 1
    outer loop
      vertex 12.1084 2.97433 7
      vertex 12.1084 -2.97433 7
      vertex 12.5 -3 7
    endloop
  endfacet
  facet normal -0 0 1
    outer loop
      vertex 11.7235 2.89778 7
      vertex 12.1084 -2.97433 7
      vertex 12.1084 2.97433 7
    endloop
  endfacet
  facet normal 0 0 1
    outer loop
      vertex 11.7235 2.89778 7
      vertex 11.7235 -2.89778 7
      vertex 12.1084 -2.97433 7
    endloop
  endfacet
  facet normal -0 0 1
    outer loop
      vertex 11.3519 2.77164 7
      vertex 11.7235 -2.89778 7
      vertex 11.7235 2.89778 7
    endloop
  endfacet
  facet normal 0 0 1
    outer loop
      vertex 11.3519 2.77164 7
      vertex 11.3519 -2.77164 7
      vertex 11.7235 -2.89778 7
    endloop
  endfacet
  facet normal -0 0 1
    outer loop
      vertex 11 2.59808 7
      vertex 11.3519 -2.77164 7
      vertex 11.3519 2.77164 7
    endloop
  endfacet
  facet normal 0 0 1
    outer loop
      vertex 11 2.59808 7
      vertex 11 -2.59808 7
      vertex 11.3519 -2.77164 7
    endloop
  endfacet
  facet normal -0 0 1
    outer loop
      vertex 10.6737 2.38006 7
      vertex 11 -2.59808 7
      vertex 11 2.59808 7
    endloop
  endfacet
  facet normal 0 0 1
    outer loop
      vertex 10.6737 2.38006 7
      vertex 10.6737 -2.38006 7
      vertex 11 -2.59808 7
    endloop
  endfacet
  facet normal -0 0 1
    outer loop
      vertex 10.3787 2.12132 7
      vertex 10.6737 -2.38006 7
      vertex 10.6737 2.38006 7
    endloop
  endfacet
  facet normal 0 0 1
    outer loop
      vertex 10.3787 2.12132 7
      vertex 10.3787 -2.12132 7
      vertex 10.6737 -2.38006 7
    endloop
  endfacet
  facet normal -0 0 1
    outer loop
      vertex 10.1199 1.82628 7
      vertex 10.3787 -2.12132 7
      vertex 10.3787 2.12132 7
    endloop
  endfacet
  facet normal 0 0 1
    outer loop
      vertex 10.1199 1.82628 7
      vertex 10.1199 -1.82628 7
      vertex 10.3787 -2.12132 7
    endloop
  endfacet
  facet normal -0 0 1
    outer loop
      vertex 9.90192 1.5 7
      vertex 10.1199 -1.82628 7
      vertex 10.1199 1.82628 7
    endloop
  endfacet
  facet normal 0 0 1
    outer loop
      vertex 9.90192 1.5 7
      vertex 9.90192 -1.5 7
      vertex 10.1199 -1.82628 7
    endloop
  endfacet
  facet normal -0 0 1
    outer loop
      vertex 9.72836 1.14805 7
      vertex 9.90192 -1.5 7
      vertex 9.90192 1.5 7
    endloop
  endfacet
  facet normal 0 0 1
    outer loop
      vertex 9.72836 1.14805 7
      vertex 9.72836 -1.14805 7
      vertex 9.90192 -1.5 7
    endloop
  endfacet
  facet normal -0 0 1
    outer loop
      vertex 9.60222 0.776457 7
      vertex 9.72836 -1.14805 7
      vertex 9.72836 1.14805 7
    endloop
  endfacet
  facet normal 0 0 1
    outer loop
      vertex 9.60222 0.776457 7
      vertex 9.60222 -0.776458 7
      vertex 9.72836 -1.14805 7
    endloop
  endfacet
  facet normal -0 0 1
    outer loop
      vertex 9.52567 0.391578 7
      vertex 9.60222 -0.776458 7
      vertex 9.60222 0.776457 7
    endloop
  endfacet
  facet normal 0 0 1
    outer loop
      vertex 9.52567 0.391578 7
      vertex 9.52567 -0.391579 7
      vertex 9.60222 -0.776458 7
    endloop
  endfacet
  facet normal 0 -0 1
    outer loop
      vertex 9.52567 -0.391579 7
      vertex 9.52567 0.391578 7
      vertex 9.5 0 7
    endloop
  endfacet
  facet normal -0.555571 0.831469 0
    outer loop
      vertex 11 2.59808 2
      vertex 10.6737 2.38006 7
      vertex 11 2.59808 7
    endloop
  endfacet
  facet normal -0.555571 0.831469 0
    outer loop
      vertex 10.6737 2.38006 7
      vertex 11 2.59808 2
      vertex 10.6737 2.38006 2
    endloop
  endfacet
  facet normal -0.659345 0.75184 0
    outer loop
      vertex 10.6737 2.38006 2
      vertex 10.3787 2.12132 7
      vertex 10.6737 2.38006 7
    endloop
  endfacet
  facet normal -0.659345 0.75184 0
    outer loop
      vertex 10.3787 2.12132 7
      vertex 10.6737 2.38006 2
      vertex 10.3787 2.12132 2
    endloop
  endfacet
  facet normal -0.32144 0.94693 0
    outer loop
      vertex 11.7235 2.89778 2
      vertex 11.3519 2.77164 7
      vertex 11.7235 2.89778 7
    endloop
  endfacet
  facet normal -0.32144 0.94693 0
    outer loop
      vertex 11.3519 2.77164 7
      vertex 11.7235 2.89778 2
      vertex 11.3519 2.77164 2
    endloop
  endfacet
  facet normal 0.32144 -0.94693 0
    outer loop
      vertex 13.2765 -2.89778 2
      vertex 13.648 -2.77164 7
      vertex 13.2765 -2.89778 7
    endloop
  endfacet
  facet normal 0.32144 -0.94693 0
    outer loop
      vertex 13.648 -2.77164 7
      vertex 13.2765 -2.89778 2
      vertex 13.648 -2.77164 2
    endloop
  endfacet
  facet normal 0.75184 -0.659345 0
    outer loop
      vertex 14.6213 -2.12132 7
      vertex 14.8801 -1.82628 2
      vertex 14.8801 -1.82628 7
    endloop
  endfacet
  facet normal 0.75184 -0.659345 0
    outer loop
      vertex 14.8801 -1.82628 2
      vertex 14.6213 -2.12132 7
      vertex 14.6213 -2.12132 2
    endloop
  endfacet
  facet normal 0.555572 -0.831468 0
    outer loop
      vertex 14 -2.59808 2
      vertex 14.3263 -2.38006 7
      vertex 14 -2.59808 7
    endloop
  endfacet
  facet normal 0.555572 -0.831468 0
    outer loop
      vertex 14.3263 -2.38006 7
      vertex 14 -2.59808 2
      vertex 14.3263 -2.38006 2
    endloop
  endfacet
  facet normal 0.896874 -0.442287 0
    outer loop
      vertex 15.0981 -1.5 7
      vertex 15.2716 -1.14805 2
      vertex 15.2716 -1.14805 7
    endloop
  endfacet
  facet normal 0.896874 -0.442287 0
    outer loop
      vertex 15.2716 -1.14805 2
      vertex 15.0981 -1.5 7
      vertex 15.0981 -1.5 2
    endloop
  endfacet
  facet normal -0.442288 -0.896873 0
    outer loop
      vertex 11 -2.59808 2
      vertex 11.3519 -2.77164 7
      vertex 11 -2.59808 7
    endloop
  endfacet
  facet normal -0.442288 -0.896873 -0
    outer loop
      vertex 11.3519 -2.77164 7
      vertex 11 -2.59808 2
      vertex 11.3519 -2.77164 2
    endloop
  endfacet
  facet normal -0.0654028 -0.997859 0
    outer loop
      vertex 12.1084 -2.97433 2
      vertex 12.5 -3 7
      vertex 12.1084 -2.97433 7
    endloop
  endfacet
  facet normal -0.0654028 -0.997859 -0
    outer loop
      vertex 12.5 -3 7
      vertex 12.1084 -2.97433 2
      vertex 12.5 -3 2
    endloop
  endfacet
  facet normal -0.831469 -0.555571 0
    outer loop
      vertex 10.1199 -1.82628 2
      vertex 9.90192 -1.5 7
      vertex 9.90192 -1.5 2
    endloop
  endfacet
  facet normal -0.831469 -0.555571 0
    outer loop
      vertex 9.90192 -1.5 7
      vertex 10.1199 -1.82628 2
      vertex 10.1199 -1.82628 7
    endloop
  endfacet
  facet normal -0.659345 -0.75184 0
    outer loop
      vertex 10.3787 -2.12132 2
      vertex 10.6737 -2.38006 7
      vertex 10.3787 -2.12132 7
    endloop
  endfacet
  facet normal -0.659345 -0.75184 -0
    outer loop
      vertex 10.6737 -2.38006 7
      vertex 10.3787 -2.12132 2
      vertex 10.6737 -2.38006 2
    endloop
  endfacet
  facet normal -0.94693 -0.32144 0
    outer loop
      vertex 9.72836 -1.14805 2
      vertex 9.60222 -0.776458 7
      vertex 9.60222 -0.776458 2
    endloop
  endfacet
  facet normal -0.94693 -0.32144 0
    outer loop
      vertex 9.60222 -0.776458 7
      vertex 9.72836 -1.14805 2
      vertex 9.72836 -1.14805 7
    endloop
  endfacet
  facet normal 0.997859 -0.0654052 0
    outer loop
      vertex 15.4743 -0.391579 7
      vertex 15.5 0 2
      vertex 15.5 0 7
    endloop
  endfacet
  facet normal 0.997859 -0.0654052 0
    outer loop
      vertex 15.5 0 2
      vertex 15.4743 -0.391579 7
      vertex 15.4743 -0.391579 2
    endloop
  endfacet
  facet normal 0.442287 -0.896874 0
    outer loop
      vertex 13.648 -2.77164 2
      vertex 14 -2.59808 7
      vertex 13.648 -2.77164 7
    endloop
  endfacet
  facet normal 0.442287 -0.896874 0
    outer loop
      vertex 14 -2.59808 7
      vertex 13.648 -2.77164 2
      vertex 14 -2.59808 2
    endloop
  endfacet
  facet normal 0.659345 -0.75184 0
    outer loop
      vertex 14.3263 -2.38006 2
      vertex 14.6213 -2.12132 7
      vertex 14.3263 -2.38006 7
    endloop
  endfacet
  facet normal 0.659345 -0.75184 0
    outer loop
      vertex 14.6213 -2.12132 7
      vertex 14.3263 -2.38006 2
      vertex 14.6213 -2.12132 2
    endloop
  endfacet
  facet normal 0.94693 -0.32144 0
    outer loop
      vertex 15.2716 -1.14805 7
      vertex 15.3978 -0.776458 2
      vertex 15.3978 -0.776458 7
    endloop
  endfacet
  facet normal 0.94693 -0.32144 0
    outer loop
      vertex 15.3978 -0.776458 2
      vertex 15.2716 -1.14805 7
      vertex 15.2716 -1.14805 2
    endloop
  endfacet
  facet normal -0.32144 -0.94693 0
    outer loop
      vertex 11.3519 -2.77164 2
      vertex 11.7235 -2.89778 7
      vertex 11.3519 -2.77164 7
    endloop
  endfacet
  facet normal -0.32144 -0.94693 -0
    outer loop
      vertex 11.7235 -2.89778 7
      vertex 11.3519 -2.77164 2
      vertex 11.7235 -2.89778 2
    endloop
  endfacet
  facet normal -0.75184 -0.659345 0
    outer loop
      vertex 10.3787 -2.12132 2
      vertex 10.1199 -1.82628 7
      vertex 10.1199 -1.82628 2
    endloop
  endfacet
  facet normal -0.75184 -0.659345 0
    outer loop
      vertex 10.1199 -1.82628 7
      vertex 10.3787 -2.12132 2
      vertex 10.3787 -2.12132 7
    endloop
  endfacet
  facet normal -0.896873 -0.442288 0
    outer loop
      vertex 9.90192 -1.5 2
      vertex 9.72836 -1.14805 7
      vertex 9.72836 -1.14805 2
    endloop
  endfacet
  facet normal -0.896873 -0.442288 0
    outer loop
      vertex 9.72836 -1.14805 7
      vertex 9.90192 -1.5 2
      vertex 9.90192 -1.5 7
    endloop
  endfacet
endsolid OpenSCAD_Model
